 <svg version="1.0" xmlns="http://www.w3.org/2000/svg"  width="300.000000pt" height="385.000000pt" viewBox="0 0 300.000000 385.000000"  preserveAspectRatio="xMidYMid meet">  <g transform="translate(0.000000,385.000000) scale(0.100000,-0.100000)" fill="#000000" stroke="none"> <path d="M1190 3596 c-161 -25 -190 -32 -190 -48 0 -5 -7 -7 -16 -4 -21 8 -43 -5 -130 -75 -40 -33 -77 -59 -83 -59 -5 0 -34 -24 -63 -53 -29 -30 -66 -62 -83 -72 -42 -25 -152 -148 -137 -153 21 -7 13 -22 -11 -22 -35 0 -39 -10 -14 -31 22 -18 22 -18 2 -34 -17 -14 -17 -16 -2 -11 11 3 17 0 17 -9 0 -20 10 -19 25 2 9 11 10 25 4 40 -5 13 -4 25 1 28 6 4 10 19 10 35 0 21 6 31 22 35 18 6 52 34 131 111 12 11 37 39 55 62 19 23 41 42 49 42 8 0 38 21 66 46 58 52 84 67 176 100 73 26 96 30 85 13 -4 -7 -1 -10 7 -7 8 3 13 11 11 17 -1 7 1 10 6 7 4 -2 28 0 52 5 25 6 61 12 80 15 19 2 55 8 80 13 63 13 70 -2 10 -23 -27 -10 -50 -24 -50 -31 0 -11 5 -11 28 1 15 7 33 14 40 14 7 0 23 7 36 15 28 19 103 16 128 -4 9 -8 28 -15 42 -16 29 -1 35 10 11 19 -8 3 -15 10 -15 15 0 6 21 -1 48 -15 35 -19 57 -25 89 -21 33 3 46 0 67 -20 14 -13 39 -26 56 -29 16 -4 30 -11 30 -16 0 -6 -10 -8 -22 -5 -22 6 -22 5 -5 -8 11 -7 25 -11 33 -8 8 3 14 0 14 -6 0 -6 7 -11 15 -11 8 0 15 -4 15 -9 0 -6 17 -20 38 -33 31 -19 37 -29 37 -55 0 -18 5 -33 11 -33 7 0 14 -6 17 -14 3 -8 15 -12 29 -9 14 3 31 -3 45 -16 21 -20 23 -20 32 -3 9 14 10 13 11 -10 0 -20 5 -28 18 -28 21 0 42 -18 42 -37 0 -7 -11 -13 -25 -13 -16 0 -25 -6 -25 -16 0 -12 6 -15 22 -11 13 4 26 0 33 -10 16 -21 38 -8 26 15 -5 9 -15 32 -21 49 -14 36 -132 153 -155 153 -8 0 -26 17 -39 39 -15 24 -42 47 -69 60 -24 12 -56 35 -71 51 -14 17 -34 30 -44 30 -10 0 -25 9 -35 20 -15 18 -28 20 -90 19 -41 -1 -83 4 -95 10 -12 6 -41 13 -64 15 -163 15 -209 13 -348 -8z m870 -277 c0 -5 -9 -9 -20 -9 -22 0 -27 16 -7 23 15 5 27 -1 27 -14z"/> <path d="M1195 3543 c-16 -3 -34 -9 -40 -15 -7 -8 -4 -9 8 -4 10 3 39 6 63 6 24 0 44 5 44 10 0 10 -19 11 -75 3z"/> <path d="M1411 3539 c-13 -5 -21 -12 -18 -15 3 -3 18 1 34 10 31 17 21 20 -16 5z"/> <path d="M1510 3540 c0 -5 5 -10 10 -10 6 0 10 5 10 10 0 6 -4 10 -10 10 -5 0 -10 -4 -10 -10z"/> <path d="M1025 3502 c-27 -9 -52 -19 -55 -22 -3 -3 -19 -12 -37 -19 -33 -13 -74 -51 -55 -51 6 0 17 6 24 13 12 12 26 19 53 28 6 1 16 9 23 16 16 16 36 17 26 2 -7 -12 41 11 71 35 25 19 14 19 -50 -2z"/> <path d="M1345 3510 c-3 -5 -2 -10 4 -10 5 0 13 5 16 10 3 6 2 10 -4 10 -5 0 -13 -4 -16 -10z"/> <path d="M1220 3500 c-13 -8 -12 -10 3 -10 9 0 17 5 17 10 0 12 -1 12 -20 0z"/> <path d="M1626 3499 c3 -5 17 -9 31 -9 32 0 23 12 -12 15 -14 2 -23 -1 -19 -6z"/> <path d="M1237 3468 c-38 -47 -33 -58 8 -18 19 19 35 38 35 42 0 17 -17 7 -43 -24z"/> <path d="M1408 3493 c7 -3 16 -2 19 1 4 3 -2 6 -13 5 -11 0 -14 -3 -6 -6z"/> <path d="M1468 3483 c7 -3 16 -2 19 1 4 3 -2 6 -13 5 -11 0 -14 -3 -6 -6z"/> <path d="M1548 3483 c7 -3 16 -2 19 1 4 3 -2 6 -13 5 -11 0 -14 -3 -6 -6z"/> <path d="M1138 3473 c10 -4 10 -8 0 -21 -12 -15 -11 -16 4 -3 19 14 15 32 -5 30 -8 0 -8 -2 1 -6z"/> <path d="M966 3424 c-22 -21 -20 -27 4 -12 11 7 20 16 20 20 0 12 -7 10 -24 -8z"/> <path d="M900 3355 c-16 -9 -19 -14 -9 -15 8 0 24 7 35 15 24 18 7 19 -26 0z"/> <path d="M838 3353 c-21 -5 -24 -23 -4 -23 8 0 16 7 20 15 3 8 4 14 3 14 -1 -1 -10 -3 -19 -6z"/> <path d="M1011 3341 c-8 -6 -9 -11 -3 -15 6 -3 14 -1 17 5 9 14 2 20 -14 10z"/> <path d="M750 3332 c0 -7 -7 -12 -15 -12 -8 0 -15 -5 -15 -12 0 -6 -7 -20 -17 -30 -9 -10 -14 -20 -11 -23 2 -3 19 13 37 36 18 22 30 43 27 46 -3 4 -6 1 -6 -5z"/> <path d="M936 3325 c-11 -8 -15 -15 -9 -15 6 0 16 7 23 15 16 19 11 19 -14 0z"/> <path d="M1280 3329 c0 -5 11 -9 25 -9 14 0 25 2 25 4 0 2 -11 6 -25 8 -14 3 -25 1 -25 -3z"/> <path d="M840 3313 c-29 -5 -52 -23 -29 -23 7 1 28 7 44 15 31 14 28 15 -15 8z"/> <path d="M990 3301 l-35 -7 33 -5 c20 -4 36 -1 43 8 6 7 8 12 3 12 -5 -1 -25 -5 -44 -8z"/> <path d="M1465 3300 c-3 -5 1 -10 10 -10 9 0 13 5 10 10 -3 6 -8 10 -10 10 -2 0 -7 -4 -10 -10z"/> <path d="M1508 3303 c7 -3 16 -2 19 1 4 3 -2 6 -13 5 -11 0 -14 -3 -6 -6z"/> <path d="M754 3275 c-10 -8 -14 -15 -8 -15 5 0 19 7 30 15 10 8 14 15 8 15 -5 0 -19 -7 -30 -15z"/> <path d="M1100 3280 c-8 -5 -10 -10 -5 -10 6 0 17 5 25 10 8 5 11 10 5 10 -5 0 -17 -5 -25 -10z"/> <path d="M1300 3265 c0 -8 7 -15 15 -15 8 0 15 4 15 9 0 5 -7 11 -15 15 -9 3 -15 0 -15 -9z"/> <path d="M1350 3270 c0 -13 11 -13 30 0 12 8 11 10 -7 10 -13 0 -23 -4 -23 -10z"/> <path d="M2010 3260 c0 -5 5 -10 10 -10 6 0 10 5 10 10 0 6 -4 10 -10 10 -5 0 -10 -4 -10 -10z"/> <path d="M2036 3255 c-6 -18 29 -41 39 -25 3 6 0 17 -9 25 -18 19 -22 19 -30 0z"/> <path d="M1106 3246 c-16 -7 -24 -16 -19 -19 6 -4 13 -3 17 1 4 4 24 12 44 18 30 10 32 12 12 12 -14 0 -38 -5 -54 -12z"/> <path d="M641 3226 c-19 -20 -21 -26 -9 -26 19 0 41 25 36 40 -2 6 -14 0 -27 -14z"/> <path d="M1455 3239 c-16 -6 -59 -19 -95 -31 -80 -25 -97 -38 -39 -31 24 3 46 9 49 12 10 12 115 42 148 43 18 1 35 5 38 10 7 11 -63 9 -101 -3z"/> <path d="M720 3215 c0 -9 6 -12 15 -9 8 4 15 10 15 15 0 5 -7 9 -15 9 -8 0 -15 -7 -15 -15z"/> <path d="M877 3213 c-4 -3 -7 -11 -7 -17 0 -6 5 -5 12 2 6 6 9 14 7 17 -3 3 -9 2 -12 -2z"/> <path d="M1033 3206 c-39 -14 -52 -26 -30 -26 22 0 67 21 67 32 0 4 -1 7 -2 7 -2 -1 -17 -7 -35 -13z"/> <path d="M1105 3196 c-27 -14 -45 -25 -40 -25 6 0 21 6 35 14 14 8 37 14 53 15 15 0 27 5 27 10 0 16 -21 12 -75 -14z"/> <path d="M1288 3213 c7 -3 16 -2 19 1 4 3 -2 6 -13 5 -11 0 -14 -3 -6 -6z"/> <path d="M2080 3205 c-27 -15 -27 -16 8 -20 16 -2 22 3 22 16 0 22 2 22 -30 4z"/> <path d="M1706 3202 c-3 -5 1 -9 9 -9 8 0 15 4 15 9 0 4 -4 8 -9 8 -6 0 -12 -4 -15 -8z"/> <path d="M672 3180 c-7 -11 -8 -20 -2 -20 5 0 14 9 20 20 6 11 7 20 3 20 -5 0 -14 -9 -21 -20z"/> <path d="M606 3175 c-3 -8 -1 -15 4 -15 13 0 22 18 11 24 -5 3 -11 -1 -15 -9z"/> <path d="M1846 3155 c4 -8 11 -15 16 -15 6 0 5 6 -2 15 -7 8 -14 15 -16 15 -2 0 -1 -7 2 -15z"/> <path d="M886 3145 c-11 -8 -15 -15 -10 -15 6 0 19 7 30 15 10 8 15 14 9 14 -5 0 -19 -6 -29 -14z"/> <path d="M1449 3156 c-2 -2 -28 -7 -57 -11 -29 -3 -65 -13 -80 -22 l-27 -15 40 7 c22 3 60 8 85 11 47 6 69 17 52 28 -5 3 -11 4 -13 2z"/> <path d="M562 3114 c-13 -19 -21 -41 -19 -47 2 -7 10 -1 17 13 7 14 16 27 19 30 3 3 12 13 20 23 11 14 11 17 0 17 -8 0 -24 -16 -37 -36z"/> <path d="M647 3132 c-21 -23 -24 -51 -4 -30 13 13 30 48 23 48 -1 0 -10 -8 -19 -18z"/> <path d="M1050 3140 c-13 -8 -13 -10 2 -10 9 0 20 5 23 10 8 13 -5 13 -25 0z"/> <path d="M1680 3140 c-12 -8 -10 -10 8 -10 13 0 20 4 17 10 -7 12 -6 12 -25 0z"/> <path d="M2120 3140 c0 -5 5 -10 11 -10 5 0 7 5 4 10 -3 6 -8 10 -11 10 -2 0 -4 -4 -4 -10z"/> <path d="M1596 3128 c3 -4 0 -8 -7 -8 -7 0 -10 -3 -6 -6 3 -3 16 1 28 9 22 16 22 16 1 14 -11 0 -18 -5 -16 -9z"/> <path d="M1920 3130 c0 -5 5 -10 11 -10 5 0 7 5 4 10 -3 6 -8 10 -11 10 -2 0 -4 -4 -4 -10z"/> <path d="M1980 3130 c0 -5 7 -10 16 -10 8 0 12 5 9 10 -3 6 -10 10 -16 10 -5 0 -9 -4 -9 -10z"/> <path d="M1210 3110 c-11 -8 -7 -9 15 -4 37 8 45 14 19 14 -10 0 -26 -5 -34 -10z"/> <path d="M2158 3103 c5 -10 8 -23 5 -29 -2 -6 3 -17 12 -24 9 -7 15 -9 14 -4 -4 17 13 44 28 44 32 0 4 25 -31 28 -33 3 -36 1 -28 -15z"/> <path d="M940 3095 c-14 -8 -20 -14 -14 -15 5 0 19 7 30 15 24 18 16 19 -16 0z"/> <path d="M1535 3100 c-16 -7 -17 -9 -3 -9 9 -1 20 4 23 9 7 11 7 11 -20 0z"/> <path d="M1293 3080 c-23 -5 -59 -18 -80 -30 -25 -14 -30 -18 -13 -14 14 3 29 10 35 15 5 5 16 9 25 9 13 0 13 -1 0 -10 -9 -6 -10 -10 -3 -10 6 0 14 4 18 9 3 5 19 12 35 16 16 4 32 11 35 16 7 10 6 10 -52 -1z"/> <path d="M1375 3080 c-7 -12 2 -12 30 0 19 8 19 9 -2 9 -12 1 -25 -3 -28 -9z"/> <path d="M1495 3080 c3 -5 8 -10 11 -10 2 0 4 5 4 10 0 6 -5 10 -11 10 -5 0 -7 -4 -4 -10z"/> <path d="M1900 3073 c0 -4 5 -15 10 -23 8 -13 10 -13 10 2 0 9 -4 20 -10 23 -5 3 -10 3 -10 -2z"/> <path d="M2020 3069 c0 -5 5 -7 10 -4 6 3 10 1 10 -4 0 -6 7 -11 15 -11 14 0 19 -11 16 -37 -2 -14 11 -17 22 -7 9 10 -20 61 -38 68 -24 9 -35 7 -35 -5z"/> <path d="M872 3045 c-17 -14 -34 -40 -37 -58 -4 -17 -11 -36 -15 -42 -10 -13 -34 -155 -27 -161 3 -3 8 18 12 45 5 38 11 51 23 51 14 0 15 2 3 9 -12 8 -9 18 17 61 18 28 27 48 22 45 -6 -3 -10 1 -10 10 0 12 5 15 17 11 10 -4 14 -4 10 0 -4 4 3 18 15 31 29 31 7 29 -30 -2z"/> <path d="M1148 3063 c6 -2 18 -2 25 0 6 3 1 5 -13 5 -14 0 -19 -2 -12 -5z"/> <path d="M1440 3060 c0 -5 -7 -10 -15 -10 -13 0 -13 -3 -3 -20 7 -10 14 -17 17 -15 6 7 11 55 5 55 -2 0 -4 -4 -4 -10z"/> <path d="M1460 3055 c0 -8 4 -15 10 -15 5 0 7 7 4 15 -4 8 -8 15 -10 15 -2 0 -4 -7 -4 -15z"/> <path d="M760 3049 c0 -5 5 -7 10 -4 6 3 10 8 10 11 0 2 -4 4 -10 4 -5 0 -10 -5 -10 -11z"/> <path d="M825 3052 c-9 -6 -51 -58 -77 -96 -6 -8 -11 -6 -17 3 -14 22 -25 -69 -17 -137 11 -93 26 -86 25 11 -1 95 -2 93 69 176 39 45 46 65 17 43z"/> <path d="M525 3015 c-9 -22 -21 -50 -25 -62 -5 -12 -10 -57 -11 -101 -1 -44 -5 -99 -9 -124 -17 -116 21 -551 51 -583 15 -15 10 -35 -8 -35 -10 0 -29 9 -43 20 -35 27 -85 26 -104 -2 -25 -35 -19 -46 9 -16 26 29 31 28 111 -6 34 -15 44 -25 54 -60 26 -86 29 -80 28 59 0 117 -12 279 -17 224 0 -9 -8 -20 -17 -23 -13 -5 -14 -9 -4 -21 6 -8 9 -19 6 -24 -4 -5 -2 -12 4 -16 11 -7 4 -25 -9 -25 -8 0 -18 67 -27 185 -3 33 -7 66 -10 74 -2 8 1 11 10 8 9 -4 16 3 19 21 5 24 4 25 -8 9 -7 -10 -15 -15 -18 -10 -6 10 -2 84 8 147 6 36 5 47 -4 42 -14 -9 -14 -4 4 72 8 34 14 66 13 70 0 4 2 15 7 25 4 10 5 40 2 68 -3 27 -2 49 2 49 15 0 21 29 12 52 -8 22 -10 20 -26 -17z m2 -137 c-2 -13 -4 -5 -4 17 -1 22 1 32 4 23 2 -10 2 -28 0 -40z"/> <path d="M943 3033 c-4 -10 -17 -33 -30 -52 -13 -19 -23 -45 -23 -58 0 -16 -4 -22 -12 -17 -7 4 -8 3 -4 -4 9 -15 -4 -63 -15 -56 -5 3 -6 -1 -3 -9 3 -8 1 -38 -4 -66 -5 -28 -6 -54 -2 -56 7 -4 19 35 35 108 3 15 10 27 15 27 5 0 16 15 25 33 8 17 22 42 31 55 14 19 14 22 1 22 -8 0 -22 -18 -31 -40 -9 -22 -18 -40 -22 -40 -13 0 10 68 37 111 16 25 29 49 29 52 0 14 -21 6 -27 -10z"/> <path d="M1323 3022 c-45 -28 -60 -50 -20 -28 55 30 91 56 77 56 -8 0 -34 -13 -57 -28z"/> <path d="M2220 3029 c0 -12 -8 -23 -20 -26 -22 -6 -26 -18 -9 -28 5 -4 15 -19 21 -33 9 -22 12 -24 15 -9 7 26 23 10 23 -23 0 -16 8 -35 18 -42 9 -7 18 -22 20 -33 10 -61 10 -85 1 -85 -5 0 -1 -9 10 -21 11 -12 18 -26 15 -33 -2 -6 -5 -104 -7 -217 -2 -113 -7 -211 -11 -218 -15 -23 -24 0 -24 61 0 75 -18 148 -36 148 -11 0 -11 -10 1 -52 8 -29 15 -82 17 -118 2 -36 9 -83 15 -105 6 -23 9 -100 8 -182 -2 -79 0 -140 4 -135 9 8 20 99 19 147 -1 57 10 83 46 104 42 25 67 27 84 6 10 -12 10 -15 -1 -15 -38 -1 -51 -28 -55 -107 -2 -52 0 -73 6 -63 5 8 10 40 10 71 0 38 5 61 15 69 12 10 16 9 21 -4 12 -32 -17 -167 -42 -197 -8 -8 -14 -29 -14 -45 0 -16 -9 -53 -19 -82 -11 -29 -20 -55 -20 -57 -3 -27 -15 -55 -23 -55 -6 0 -8 -9 -5 -19 6 -26 -25 -54 -55 -49 -27 4 -42 55 -21 76 7 7 13 21 12 30 0 12 -3 11 -9 -5 -5 -13 -14 -23 -20 -23 -7 0 -9 -8 -5 -19 4 -14 -6 -37 -29 -71 -20 -28 -38 -68 -42 -88 -3 -20 -15 -72 -25 -116 -10 -43 -19 -88 -19 -100 -1 -48 -101 -192 -174 -249 -20 -15 -36 -33 -36 -40 0 -7 4 -6 10 3 5 8 10 11 10 6 0 -5 9 3 21 18 23 30 44 35 35 9 -5 -16 -4 -16 8 0 8 11 12 25 9 33 -3 9 2 14 17 14 11 0 19 4 15 9 -3 6 13 29 35 53 l40 43 -1 -68 c-1 -62 4 -87 15 -76 3 2 6 67 7 144 2 114 7 154 26 214 13 41 23 80 23 88 0 20 41 113 50 113 4 0 13 -7 20 -15 19 -23 46 -18 78 13 21 20 38 55 61 132 37 120 66 207 88 265 8 22 15 66 16 98 1 98 -57 134 -120 75 -13 -12 -26 -19 -29 -15 -4 3 -1 41 5 84 10 64 25 379 24 498 0 40 -23 147 -34 161 -18 22 -69 129 -69 146 0 9 6 19 13 21 6 3 2 6 -10 6 -17 1 -23 -5 -23 -20z"/> <path d="M741 3024 c0 -11 3 -14 6 -6 3 7 2 16 -1 19 -3 4 -6 -2 -5 -13z"/> <path d="M1060 3021 c0 -5 7 -12 16 -15 14 -5 15 -4 4 9 -14 17 -20 19 -20 6z"/> <path d="M672 2958 c-1 -27 -4 -59 -7 -71 -5 -17 -4 -19 4 -7 6 8 11 11 12 5 1 -5 5 10 8 35 3 25 2 48 -3 52 -6 4 -5 12 2 21 9 11 9 14 -2 14 -10 0 -14 -14 -14 -49z"/> <path d="M1166 2994 c-3 -9 -6 -23 -6 -33 0 -12 -9 -17 -31 -19 -18 -1 -45 -14 -61 -27 -45 -38 -63 -31 -32 13 8 12 12 22 8 22 -3 0 1 12 11 26 12 19 13 25 4 22 -8 -3 -23 -32 -35 -67 -12 -34 -24 -65 -28 -68 -3 -4 -6 -41 -6 -83 0 -86 29 -211 56 -241 29 -33 33 -21 9 29 -13 26 -30 68 -37 94 l-12 48 133 130 c74 72 131 133 128 136 -5 5 -171 -144 -223 -202 -17 -19 -35 -34 -39 -34 -4 0 -5 23 -2 51 6 51 31 93 51 86 6 -2 28 7 49 20 20 13 37 21 37 18 0 -4 11 7 24 22 14 16 21 32 16 37 -5 5 -6 15 -3 22 3 8 3 14 0 14 -3 0 -8 -7 -11 -16z"/> <path d="M2088 2978 c-22 -37 -39 -80 -28 -73 13 8 53 85 47 91 -2 3 -11 -6 -19 -18z"/> <path d="M1306 2968 c3 -5 10 -6 15 -3 13 9 11 12 -6 12 -8 0 -12 -4 -9 -9z"/> <path d="M1000 2959 c0 -5 5 -7 10 -4 6 3 10 8 10 11 0 2 -4 4 -10 4 -5 0 -10 -5 -10 -11z"/> <path d="M1065 2960 c-3 -5 -2 -10 4 -10 5 0 13 5 16 10 3 6 2 10 -4 10 -5 0 -13 -4 -16 -10z"/> <path d="M1276 2934 c-5 -14 -4 -15 9 -4 17 14 19 20 6 20 -5 0 -12 -7 -15 -16z"/> <path d="M2130 2934 c0 -8 5 -12 10 -9 6 4 8 11 5 16 -9 14 -15 11 -15 -7z"/> <path d="M588 2915 c-3 -14 -1 -25 3 -25 5 0 9 11 9 25 0 14 -2 25 -4 25 -2 0 -6 -11 -8 -25z"/> <path d="M949 2893 c-13 -21 -29 -44 -36 -51 -10 -11 -21 -65 -26 -127 -3 -42 15 -145 28 -155 21 -17 28 5 15 46 -8 22 -11 70 -8 119 3 67 10 95 34 144 34 67 29 82 -7 24z"/> <path d="M1710 2900 c0 -5 5 -10 10 -10 6 0 10 5 10 10 0 6 -4 10 -10 10 -5 0 -10 -4 -10 -10z"/> <path d="M2121 2878 c-1 -9 -3 -22 -4 -30 -2 -7 -2 -10 0 -6 2 4 12 4 21 1 14 -5 15 -4 6 8 -6 8 -14 21 -17 29 -4 12 -6 12 -6 -2z"/> <path d="M1890 2860 c0 -5 5 -10 10 -10 6 0 10 5 10 10 0 6 -4 10 -10 10 -5 0 -10 -4 -10 -10z"/> <path d="M2205 2860 c-8 -14 3 -30 21 -30 8 0 12 5 9 10 -4 6 -11 7 -17 4 -7 -5 -9 -1 -5 9 7 19 2 23 -8 7z"/> <path d="M610 2840 c0 -11 4 -20 9 -20 5 0 7 9 4 20 -3 11 -7 20 -9 20 -2 0 -4 -9 -4 -20z"/> <path d="M2150 2820 c0 -5 5 -10 11 -10 5 0 7 5 4 10 -3 6 -8 10 -11 10 -2 0 -4 -4 -4 -10z"/> <path d="M610 2799 c0 -5 5 -7 10 -4 6 3 10 8 10 11 0 2 -4 4 -10 4 -5 0 -10 -5 -10 -11z"/> <path d="M2138 2795 c5 -11 15 -31 21 -45 11 -24 11 -24 6 5 -4 17 -13 37 -22 45 -14 13 -14 13 -5 -5z"/> <path d="M1175 2789 c-4 -6 -5 -12 -2 -15 2 -3 7 2 10 11 7 17 1 20 -8 4z"/> <path d="M561 2734 c0 -11 3 -14 6 -6 3 7 2 16 -1 19 -3 4 -6 -2 -5 -13z"/> <path d="M587 2730 c4 -16 8 -18 20 -9 11 10 11 14 1 20 -21 14 -26 10 -21 -11z"/> <path d="M575 2689 c-4 -6 -5 -12 -2 -15 2 -3 7 2 10 11 7 17 1 20 -8 4z"/> <path d="M2150 2660 c0 -9 4 -20 10 -26 5 -5 13 -27 17 -48 8 -39 33 -63 33 -32 0 9 -4 16 -9 16 -5 0 -8 12 -8 26 0 15 -5 29 -10 33 -5 3 -15 15 -21 26 -8 15 -11 16 -12 5z"/> <path d="M596 2645 c4 -8 8 -15 10 -15 2 0 4 7 4 15 0 8 -4 15 -10 15 -5 0 -7 -7 -4 -15z"/> <path d="M620 2615 c0 -9 -7 -18 -15 -21 -17 -7 -21 -34 -4 -34 5 0 7 5 4 10 -3 6 -2 10 3 10 5 0 14 11 20 25 7 15 8 25 2 25 -6 0 -10 -7 -10 -15z"/> <path d="M1590 2620 c0 -5 5 -10 10 -10 6 0 10 5 10 10 0 6 -4 10 -10 10 -5 0 -10 -4 -10 -10z"/> <path d="M1550 2610 c0 -5 5 -10 11 -10 5 0 7 5 4 10 -3 6 -8 10 -11 10 -2 0 -4 -4 -4 -10z"/> <path d="M2125 2610 c3 -5 8 -10 11 -10 2 0 4 5 4 10 0 6 -5 10 -11 10 -5 0 -7 -4 -4 -10z"/> <path d="M638 2573 c-9 -10 -21 -28 -27 -40 -6 -13 -18 -23 -25 -23 -26 0 -48 -51 -50 -114 -3 -73 1 -85 21 -56 10 14 12 25 5 33 -9 10 -10 49 -3 100 1 4 11 12 24 18 12 5 33 27 47 47 14 20 29 40 35 44 7 5 6 8 -1 8 -6 0 -18 -8 -26 -17z"/> <path d="M2138 2543 c26 -37 61 -68 68 -60 5 5 -73 87 -83 87 -2 0 4 -12 15 -27z"/> <path d="M646 2508 c-9 -5 -21 -19 -27 -31 l-12 -22 25 23 c13 12 32 22 41 22 9 0 17 4 17 8 0 11 -24 11 -44 0z"/> <path d="M1720 2480 c0 -5 5 -10 10 -10 6 0 10 5 10 10 0 6 -4 10 -10 10 -5 0 -10 -4 -10 -10z"/> <path d="M570 2433 c0 -10 4 -14 8 -8 4 6 11 13 16 18 5 4 2 7 -7 7 -10 0 -17 -8 -17 -17z"/> <path d="M1895 2400 c3 -5 8 -10 11 -10 2 0 4 5 4 10 0 6 -5 10 -11 10 -5 0 -7 -4 -4 -10z"/> <path d="M1698 2373 c-10 -2 -18 -9 -18 -14 0 -13 13 -11 36 6 19 14 14 17 -18 8z"/> <path d="M1900 2360 c38 -18 42 -23 28 -31 -24 -13 -66 -1 -79 23 -10 18 -11 18 -30 -4 -18 -21 -20 -22 -29 -5 -15 24 -35 21 -64 -10 -24 -26 -28 -49 -4 -25 15 15 38 16 38 2 0 -12 -10 -16 -62 -25 -21 -3 -38 -10 -38 -15 0 -10 27 -8 188 16 82 13 106 13 118 3 13 -10 13 -8 4 15 -8 21 -7 25 3 19 6 -4 23 -6 37 -5 25 2 25 2 3 -8 -33 -14 -28 -20 11 -13 24 4 40 1 50 -10 9 -8 21 -18 28 -20 10 -4 9 -8 -2 -16 -13 -9 -13 -11 1 -11 23 0 31 26 14 40 -8 7 -12 17 -9 22 10 17 -38 52 -76 55 -58 5 -105 10 -141 17 -31 6 -31 5 11 -14z m-120 -24 c0 -11 -19 -15 -25 -6 -3 5 1 10 9 10 9 0 16 -2 16 -4z m55 -25 c-16 -14 -65 -22 -65 -11 0 6 4 9 8 6 4 -2 14 -1 22 5 19 11 47 12 35 0z"/> <path d="M947 2349 c-10 -6 -44 -13 -75 -15 -71 -6 -115 -26 -143 -65 -18 -25 -19 -33 -8 -40 7 -4 16 -4 19 0 3 4 13 10 23 14 9 3 17 11 17 18 0 6 -7 9 -15 5 -8 -3 -15 -1 -15 4 0 13 335 4 359 -10 11 -5 27 -7 35 -4 9 3 16 1 16 -6 0 -6 4 -9 9 -6 5 4 22 1 37 -4 28 -11 28 -11 9 10 -10 11 -23 19 -29 17 -6 -3 -19 0 -29 5 -11 5 -34 11 -53 13 -18 2 -41 11 -51 20 -16 17 -16 17 7 10 14 -4 31 -13 39 -19 11 -8 15 -8 18 2 7 18 27 15 43 -8 8 -11 17 -15 20 -10 4 6 21 -1 40 -15 31 -23 34 -23 46 -7 13 16 13 16 14 0 0 -10 4 -18 9 -18 24 0 1 35 -27 42 -18 5 -32 14 -32 21 0 7 -8 13 -17 14 -10 1 -42 7 -71 14 -39 9 -63 9 -88 1 -19 -6 -34 -6 -34 -1 0 5 5 9 11 9 5 0 7 5 3 11 -5 8 -9 7 -15 -4 -5 -8 -20 -18 -34 -21 -14 -4 -24 -10 -21 -14 2 -4 -9 -8 -25 -9 -15 -1 -31 2 -34 7 -4 6 -3 10 2 11 29 3 48 10 62 23 17 18 5 21 -22 5z m170 -25 c-3 -3 -12 -4 -19 -1 -8 3 -5 6 6 6 11 1 17 -2 13 -5z m-282 -14 c3 -5 -1 -10 -9 -10 -9 0 -16 5 -16 10 0 6 4 10 9 10 6 0 13 -4 16 -10z"/> <path d="M1633 2344 c-4 -11 -8 -12 -13 -4 -4 6 -10 -12 -13 -41 -7 -60 -2 -74 12 -36 5 14 19 28 30 32 11 3 20 12 18 18 -1 7 6 11 15 9 9 -1 20 3 24 9 5 9 2 10 -9 6 -10 -3 -17 -2 -17 3 0 18 -17 10 -29 -12 -11 -22 -11 -22 -8 5 5 30 0 36 -10 11z"/> <path d="M1566 2334 c-3 -8 -3 -34 0 -57 4 -30 3 -38 -5 -27 -5 8 -13 11 -17 7 -4 -3 -1 -14 6 -22 11 -13 15 -14 21 -3 14 24 22 118 11 118 -5 0 -13 -7 -16 -16z"/> <path d="M1530 2305 c0 -14 4 -25 9 -25 4 0 6 11 3 25 -2 14 -6 25 -8 25 -2 0 -4 -11 -4 -25z"/> <path d="M1280 2316 c0 -2 8 -10 18 -17 15 -13 16 -12 3 4 -13 16 -21 21 -21 13z"/> <path d="M1480 2260 c0 -19 3 -21 12 -12 9 9 9 15 0 24 -9 9 -12 7 -12 -12z"/> <path d="M1075 2209 c17 -5 46 -15 65 -21 19 -6 38 -16 42 -22 5 -7 8 -5 8 5 0 21 -68 49 -113 48 l-32 -1 30 -9z"/> <path d="M1750 2213 c-22 -3 -82 -26 -146 -55 -24 -11 -42 -40 -49 -75 -6 -33 7 -28 26 9 18 38 86 81 164 103 73 22 75 29 5 18z"/> <path d="M708 2193 c7 -3 16 -2 19 1 4 3 -2 6 -13 5 -11 0 -14 -3 -6 -6z"/> <path d="M921 2174 c-25 -14 -51 -34 -58 -45 -8 -10 -23 -19 -33 -19 -10 0 -22 -5 -25 -10 -7 -12 54 -8 73 4 7 4 12 1 12 -7 0 -8 13 -17 30 -20 23 -5 28 -10 23 -24 -5 -15 -3 -16 8 -5 20 19 39 14 39 -10 1 -22 1 -23 15 -4 14 19 12 21 -37 44 -65 29 -62 26 -54 56 7 27 36 27 36 0 0 -8 5 -14 10 -14 6 0 10 5 10 10 0 6 7 10 15 10 8 0 15 -7 15 -15 0 -8 -7 -15 -16 -15 -14 0 -14 -3 -4 -15 9 -11 22 -14 44 -9 45 9 56 22 56 64 0 34 -3 38 -31 44 -55 11 -83 6 -128 -20z m109 -20 c0 -8 -4 -14 -10 -14 -5 0 -10 9 -10 21 0 11 5 17 10 14 6 -3 10 -13 10 -21z m21 -27 c-8 -8 -11 -7 -11 4 0 20 13 34 18 19 3 -7 -1 -17 -7 -23z"/> <path d="M1800 2191 c-52 -11 -120 -45 -160 -79 -32 -29 -33 -31 -12 -32 14 0 22 6 22 18 1 16 1 16 11 -1 7 -12 17 -15 33 -11 15 3 29 -1 39 -11 16 -15 37 -13 37 4 0 8 -64 33 -77 29 -4 -2 -9 2 -10 7 -1 6 4 9 11 7 7 -1 21 7 31 18 23 25 35 26 35 2 0 -27 32 -52 67 -52 32 0 63 26 63 53 0 20 2 20 33 6 16 -7 23 -17 20 -29 -3 -10 0 -21 6 -24 6 -4 11 -2 11 3 0 6 18 11 40 11 22 0 40 5 40 10 0 6 -7 10 -17 10 -9 0 -30 11 -48 24 -17 14 -49 27 -71 31 -21 4 -46 8 -54 10 -8 1 -31 -1 -50 -4z m30 -31 c0 -5 -4 -10 -10 -10 -5 0 -10 5 -10 10 0 6 5 10 10 10 6 0 10 -4 10 -10z m20 -42 c-27 -26 -31 -22 -13 13 11 23 18 28 24 18 5 -9 1 -20 -11 -31z m-41 6 c3 -16 1 -17 -13 -5 -19 16 -21 34 -3 29 6 -3 14 -13 16 -24z"/> <path d="M1985 2176 c30 -26 51 -34 40 -16 -3 6 -21 17 -38 26 l-32 15 30 -25z"/> <path d="M1100 2173 c1 -16 28 -43 43 -43 35 0 24 -18 -18 -30 -44 -12 -84 -44 -72 -57 4 -3 7 -1 7 5 0 7 9 12 19 12 11 0 21 5 23 10 2 6 29 14 61 17 36 4 56 10 54 17 -2 6 -11 10 -20 10 -9 -1 -15 2 -14 7 1 5 -17 20 -40 34 -24 15 -43 23 -43 18z"/> <path d="M840 2155 c-7 -9 -11 -18 -8 -20 3 -3 11 1 18 10 7 9 11 18 8 20 -3 3 -11 -1 -18 -10z"/> <path d="M1239 2157 c7 -9 11 -23 8 -32 -8 -19 13 -31 24 -14 12 20 11 22 -19 44 -21 15 -24 15 -13 2z"/> <path d="M1525 2102 c-3 -16 -3 -44 1 -63 3 -19 7 -40 7 -46 0 -7 3 -13 6 -13 4 0 6 -23 4 -51 -1 -28 2 -61 7 -72 6 -14 8 11 7 73 -1 52 -6 98 -12 102 -5 4 -9 27 -7 52 2 52 -3 60 -13 18z"/> <path d="M1280 2100 c0 -5 5 -10 11 -10 5 0 7 5 4 10 -3 6 -8 10 -11 10 -2 0 -4 -4 -4 -10z"/> <path d="M1908 2093 c-20 -5 -23 -18 -8 -28 6 -3 17 0 25 9 25 24 21 29 -17 19z"/> <path d="M365 2074 c-10 -10 -14 -25 -11 -38 3 -12 6 -29 6 -38 0 -10 10 -27 23 -39 12 -12 16 -19 9 -15 -9 6 -8 -3 4 -31 9 -21 31 -78 49 -128 75 -209 143 -291 204 -248 25 17 27 33 6 33 -8 0 -15 -4 -15 -9 0 -17 -33 -21 -56 -6 -18 12 -88 124 -89 145 -1 3 -7 23 -15 45 -7 22 -13 50 -12 61 1 12 -5 27 -13 34 -8 7 -12 17 -8 23 3 6 1 7 -5 3 -8 -5 -12 1 -12 14 0 12 -4 29 -10 39 -5 10 -12 31 -15 47 -18 87 -18 94 -1 100 9 3 13 10 10 15 -8 14 -31 11 -49 -7z"/> <path d="M873 2062 c1 -14 5 -18 11 -12 7 7 6 14 -1 21 -9 9 -12 7 -10 -9z"/> <path d="M1775 2069 c-9 -14 -2 -20 14 -10 8 6 9 11 3 15 -6 3 -14 1 -17 -5z"/> <path d="M430 2062 c0 -12 19 -26 26 -19 2 2 -2 10 -11 17 -9 8 -15 8 -15 2z"/> <path d="M1838 2048 c5 -19 7 -20 10 -5 2 9 6 17 9 17 4 0 15 -8 26 -17 19 -17 20 -17 8 5 -7 13 -21 22 -35 22 -20 0 -23 -4 -18 -22z"/> <path d="M2330 2045 c-7 -9 -11 -18 -8 -20 3 -3 11 1 18 10 7 9 11 18 8 20 -3 3 -11 -1 -18 -10z"/> <path d="M564 1928 c9 -13 19 -30 22 -38 12 -31 27 -60 31 -57 4 5 -28 89 -40 105 -5 6 -14 12 -19 12 -6 0 -3 -10 6 -22z"/> <path d="M1840 1845 c0 -8 4 -15 10 -15 5 0 7 7 4 15 -4 8 -8 15 -10 15 -2 0 -4 -7 -4 -15z"/> <path d="M2258 1799 c-3 -35 -4 -66 -2 -68 9 -11 17 12 19 58 3 74 -12 83 -17 10z"/> <path d="M1120 1839 c0 -5 5 -7 10 -4 6 3 10 8 10 11 0 2 -4 4 -10 4 -5 0 -10 -5 -10 -11z"/> <path d="M1630 1840 c0 -5 5 -10 11 -10 5 0 7 5 4 10 -3 6 -8 10 -11 10 -2 0 -4 -4 -4 -10z"/> <path d="M1550 1820 c0 -5 5 -10 10 -10 6 0 10 5 10 10 0 6 -4 10 -10 10 -5 0 -10 -4 -10 -10z"/> <path d="M820 1789 c0 -5 5 -7 10 -4 6 3 10 8 10 11 0 2 -4 4 -10 4 -5 0 -10 -5 -10 -11z"/> <path d="M580 1764 c0 -15 24 -64 33 -64 4 0 7 6 7 14 0 16 -39 66 -40 50z"/> <path d="M1760 1750 c0 -5 5 -10 10 -10 6 0 10 5 10 10 0 6 -4 10 -10 10 -5 0 -10 -4 -10 -10z"/> <path d="M1283 1733 c-3 -10 -8 -22 -11 -27 -3 -5 0 -6 5 -3 11 7 25 47 17 47 -3 0 -7 -8 -11 -17z"/> <path d="M641 1724 c0 -11 3 -14 6 -6 3 7 2 16 -1 19 -3 4 -6 -2 -5 -13z"/> <path d="M1610 1735 c0 -3 9 -24 21 -46 26 -52 19 -115 -15 -130 -11 -6 -29 -24 -39 -42 -18 -31 -18 -32 5 -50 13 -10 33 -27 46 -38 12 -10 29 -19 38 -19 23 0 -21 42 -62 60 -28 12 -31 16 -21 37 5 13 25 32 44 43 33 19 37 31 33 93 -2 34 -50 121 -50 92z"/> <path d="M1593 1695 c0 -22 2 -30 4 -17 2 12 2 30 0 40 -3 9 -5 -1 -4 -23z"/> <path d="M2280 1690 c0 -5 7 -7 15 -4 8 4 15 8 15 10 0 2 -7 4 -15 4 -8 0 -15 -4 -15 -10z"/> <path d="M1257 1683 c-4 -3 -7 -16 -6 -27 0 -19 1 -19 10 3 10 24 8 36 -4 24z"/> <path d="M925 1668 c-9 -22 4 -43 17 -30 7 7 7 16 0 29 -10 17 -11 17 -17 1z"/> <path d="M674 1625 c3 -21 16 -31 16 -12 0 9 -4 18 -9 21 -5 4 -8 -1 -7 -9z"/> <path d="M2045 1611 c-3 -5 -1 -12 5 -16 5 -3 10 1 10 9 0 18 -6 21 -15 7z"/> <path d="M1251 1598 c-1 -9 6 -24 15 -32 21 -22 31 -20 12 2 -9 9 -18 24 -21 32 -4 12 -6 12 -6 -2z"/> <path d="M1280 1601 c0 -5 13 -14 28 -19 16 -5 45 -24 65 -42 40 -35 46 -33 21 5 -28 42 -114 85 -114 56z"/> <path d="M1580 1583 c-20 -7 -100 -85 -100 -97 0 -6 17 6 38 26 20 20 52 43 70 52 17 9 32 19 32 21 0 6 -20 5 -40 -2z"/> <path d="M712 1520 c18 -36 34 -58 40 -54 7 5 5 11 -5 19 -10 7 -17 18 -17 24 0 17 -29 71 -38 71 -5 0 5 -27 20 -60z"/> <path d="M1300 1544 c0 -6 5 -15 11 -21 14 -14 3 -33 -17 -33 -8 0 -28 -16 -45 -35 -23 -26 -32 -47 -34 -80 -3 -47 7 -58 24 -27 8 13 10 14 11 2 0 -13 1 -13 10 0 5 8 15 15 21 15 7 0 14 6 17 13 3 11 0 12 -18 2 -34 -18 -34 -5 -1 33 36 40 39 51 11 42 -11 -4 -20 -2 -20 4 0 6 3 10 8 9 12 -3 62 25 62 34 0 5 -9 18 -20 30 -11 12 -20 17 -20 12z m-39 -126 c-4 -12 -14 -24 -20 -26 -8 -3 -7 5 4 22 21 32 27 33 16 4z"/> <path d="M2095 1480 c-3 -5 -1 -10 4 -10 6 0 11 5 11 10 0 6 -2 10 -4 10 -3 0 -8 -4 -11 -10z"/> <path d="M1330 1465 c-7 -8 -8 -15 -2 -15 5 0 15 7 22 15 7 8 8 15 2 15 -5 0 -15 -7 -22 -15z"/> <path d="M1405 1470 c3 -5 10 -10 16 -10 5 0 9 5 9 10 0 6 -7 10 -16 10 -8 0 -12 -4 -9 -10z"/> <path d="M1521 1467 c-8 -10 -7 -14 4 -14 8 0 16 6 19 14 3 7 2 13 -3 13 -5 0 -14 -6 -20 -13z"/> <path d="M1750 1460 c0 -5 5 -10 10 -10 6 0 10 5 10 10 0 6 -4 10 -10 10 -5 0 -10 -4 -10 -10z"/> <path d="M750 1440 c0 -5 5 -10 11 -10 5 0 7 5 4 10 -3 6 -8 10 -11 10 -2 0 -4 -4 -4 -10z"/> <path d="M1361 1436 c-7 -8 -8 -17 -3 -20 6 -3 15 1 21 8 7 8 8 17 3 20 -6 3 -15 -1 -21 -8z"/> <path d="M1481 1430 c-1 -20 -3 -22 -11 -10 -5 8 -10 10 -10 4 0 -14 53 -64 68 -64 19 0 14 18 -7 25 -10 3 -23 20 -29 38 -9 29 -10 30 -11 7z"/> <path d="M1570 1443 c0 -5 9 -18 20 -28 11 -10 20 -14 20 -8 0 5 -9 18 -20 28 -11 10 -20 14 -20 8z"/> <path d="M1180 1421 c0 -5 -13 -14 -30 -20 -21 -7 -30 -17 -30 -32 0 -17 -3 -19 -14 -10 -12 10 -17 8 -26 -9 -6 -12 -14 -34 -16 -48 -4 -22 -3 -25 7 -14 7 6 21 12 31 12 12 0 15 5 11 16 -4 10 2 17 16 21 14 4 24 16 28 34 3 16 8 27 12 24 4 -2 12 5 19 16 7 11 8 19 2 19 -5 0 -10 -4 -10 -9z m-80 -85 c0 -3 -4 -8 -10 -11 -5 -3 -10 -1 -10 4 0 6 5 11 10 11 6 0 10 -2 10 -4z"/> <path d="M1327 1418 c-15 -39 -17 -51 -11 -74 8 -32 24 -31 24 1 0 14 7 28 15 31 8 4 15 10 15 15 0 4 -6 6 -14 3 -9 -4 -16 3 -18 18 -4 19 -6 20 -11 6z"/> <path d="M1410 1422 c0 -5 -9 -19 -20 -32 -27 -31 -26 -35 16 -37 35 -2 36 -1 30 29 -3 17 -6 34 -6 39 0 5 -4 9 -10 9 -5 0 -10 -4 -10 -8z"/> <path d="M1542 1416 c7 -8 15 -12 17 -11 5 6 -10 25 -20 25 -5 0 -4 -6 3 -14z"/> <path d="M760 1405 c0 -8 4 -15 10 -15 5 0 7 7 4 15 -4 8 -8 15 -10 15 -2 0 -4 -7 -4 -15z"/> <path d="M1706 1395 c5 -21 3 -24 -16 -20 -12 2 -29 10 -38 17 -13 11 -15 10 -10 -9 7 -27 -7 -31 -20 -7 -12 22 -32 9 -32 -19 0 -17 2 -19 9 -7 6 8 7 19 5 25 -3 5 2 1 10 -9 18 -23 43 -29 52 -14 4 6 9 7 13 0 3 -5 16 -12 28 -16 18 -6 22 -4 17 8 -10 25 12 19 24 -6 6 -13 11 -17 11 -10 1 20 21 14 21 -7 0 -10 7 -21 15 -25 8 -3 15 -12 15 -19 0 -8 8 -21 17 -28 15 -12 16 -12 7 1 -5 8 -9 22 -10 30 -4 54 -3 53 -21 39 -15 -12 -16 -12 -11 3 4 9 4 19 0 23 -4 4 -7 10 -7 14 0 11 -61 61 -74 61 -7 0 -9 -9 -5 -25z m52 -46 c-3 -8 -7 -3 -11 10 -4 17 -3 21 5 13 5 -5 8 -16 6 -23z"/> <path d="M1195 1400 c-4 -6 -10 -24 -15 -40 -6 -22 -5 -28 5 -24 8 3 17 19 20 36 7 31 2 47 -10 28z"/> <path d="M1548 1372 c-4 -12 -2 -25 4 -28 16 -10 22 4 11 28 l-10 22 -5 -22z"/> <path d="M2080 1369 c0 -11 4 -18 10 -14 5 3 7 12 3 20 -7 21 -13 19 -13 -6z"/> <path d="M770 1366 c0 -8 5 -18 10 -21 6 -3 10 1 10 9 0 8 -4 18 -10 21 -5 3 -10 -1 -10 -9z"/> <path d="M840 1366 c0 -9 5 -16 10 -16 6 0 10 4 10 9 0 6 -4 13 -10 16 -5 3 -10 -1 -10 -9z"/> <path d="M1456 1363 c-4 -9 3 -13 19 -13 16 0 23 4 19 13 -3 8 -11 14 -19 14 -8 0 -16 -6 -19 -14z"/> <path d="M1795 1350 c3 -5 11 -10 16 -10 6 0 7 5 4 10 -3 6 -11 10 -16 10 -6 0 -7 -4 -4 -10z"/> <path d="M2050 1314 c5 -13 7 -32 3 -41 -3 -12 1 -9 12 6 14 18 15 25 5 31 -10 6 -9 9 1 12 8 3 5 7 -8 10 -19 5 -21 3 -13 -18z"/> <path d="M890 1310 c0 -5 5 -10 10 -10 6 0 10 5 10 10 0 6 -4 10 -10 10 -5 0 -10 -4 -10 -10z"/> <path d="M1481 1311 c-8 -6 -9 -11 -3 -15 6 -3 14 -1 17 5 9 14 2 20 -14 10z"/> <path d="M1163 1293 c-20 -7 -15 -23 5 -23 10 0 22 -3 25 -7 4 -3 34 -5 67 -4 48 2 65 -2 86 -18 29 -23 44 -27 44 -12 0 5 -8 12 -17 14 -15 4 -15 5 -2 6 9 0 22 -6 29 -14 12 -14 15 -14 31 1 18 16 19 16 19 -4 0 -25 15 -29 23 -8 4 9 14 12 27 9 13 -4 25 0 31 8 6 10 31 14 83 16 48 1 83 6 96 16 31 21 8 30 -29 11 -23 -12 -35 -13 -45 -5 -9 8 -32 6 -85 -8 -61 -16 -83 -18 -134 -9 -34 5 -98 13 -142 16 -44 4 -84 10 -90 13 -5 4 -16 4 -22 2z"/> <path d="M1100 1269 c0 -5 5 -7 10 -4 6 3 10 8 10 11 0 2 -4 4 -10 4 -5 0 -10 -5 -10 -11z"/> <path d="M804 1223 c3 -21 6 -69 6 -108 0 -44 4 -65 9 -56 5 7 7 27 4 44 -2 16 -2 40 2 54 l6 25 21 -29 c12 -15 23 -30 25 -32 2 -2 6 -1 10 2 3 4 -2 16 -12 27 -19 22 -38 51 -54 88 -16 34 -24 26 -17 -15z"/> <path d="M2010 1210 c0 -5 5 -10 10 -10 6 0 10 5 10 10 0 6 -4 10 -10 10 -5 0 -10 -4 -10 -10z"/> <path d="M1231 1144 c0 -11 3 -14 6 -6 3 7 2 16 -1 19 -3 4 -6 -2 -5 -13z"/> <path d="M1650 1151 c0 -18 18 -21 30 -6 10 13 9 15 -9 15 -11 0 -21 -4 -21 -9z"/> <path d="M1277 1126 c-4 -10 -1 -13 9 -9 8 3 14 -1 14 -10 0 -13 5 -13 30 -4 31 12 47 6 35 -13 -6 -9 -10 -9 -16 1 -6 10 -8 7 -6 -9 2 -27 2 -27 40 0 l30 22 -5 -22 c-4 -12 -2 -22 4 -22 5 0 12 9 15 20 5 18 7 17 22 -11 9 -18 21 -32 26 -32 6 0 20 -3 33 -8 28 -11 28 -6 -3 25 -14 14 -25 31 -25 38 0 7 13 -2 29 -20 17 -17 35 -32 42 -32 7 0 0 11 -15 25 -28 26 -35 48 -11 39 8 -4 15 -12 15 -20 0 -8 5 -14 11 -14 8 0 5 35 -5 47 -1 1 -57 3 -124 5 -67 2 -122 6 -122 11 0 13 -18 7 -23 -7z m197 -52 c3 -8 2 -12 -4 -9 -6 3 -10 10 -10 16 0 14 7 11 14 -7z"/> <path d="M1600 1131 c0 -10 25 -21 48 -21 12 1 10 5 -8 15 -29 17 -40 18 -40 6z"/> <path d="M1570 1113 c0 -12 8 -23 20 -26 11 -3 20 -2 20 2 0 5 -9 16 -20 26 -19 18 -20 17 -20 -2z"/> <path d="M900 1110 c0 -5 5 -10 11 -10 5 0 7 5 4 10 -3 6 -8 10 -11 10 -2 0 -4 -4 -4 -10z"/> <path d="M1820 1016 c0 -20 2 -36 4 -36 8 0 12 61 4 66 -4 3 -8 -11 -8 -30z"/> <path d="M743 1001 c-22 -16 -49 -41 -60 -55 -12 -14 -29 -26 -39 -26 -31 -1 -150 -56 -201 -93 -51 -36 -288 -158 -385 -196 -35 -14 -58 -29 -58 -38 0 -10 5 -13 18 -8 9 4 44 17 77 30 51 20 131 59 170 83 6 4 15 7 20 8 6 1 39 18 73 38 35 20 67 36 70 36 4 1 23 14 42 30 19 17 38 30 42 30 5 0 40 16 79 35 67 33 71 34 76 15 3 -11 9 -18 13 -15 4 2 10 -26 13 -63 6 -70 28 -135 94 -287 62 -143 114 -196 331 -333 46 -28 88 -52 93 -52 5 0 17 -4 27 -9 89 -49 341 -76 436 -47 26 8 48 14 49 14 3 1 59 21 77 29 12 5 12 7 -3 10 -9 3 -45 -5 -80 -16 -82 -27 -218 -37 -288 -21 -128 29 -237 72 -314 122 -44 29 -82 55 -85 58 -3 4 -26 21 -52 38 -55 38 -131 132 -159 199 -12 27 -27 63 -36 81 -29 66 -62 172 -68 225 -7 54 0 79 27 109 45 48 70 98 50 98 -5 0 -27 -13 -49 -29z"/> <path d="M2112 1008 c2 -7 29 -26 60 -43 87 -48 128 -83 128 -111 0 -37 -29 -171 -51 -238 -42 -124 -99 -222 -178 -304 -94 -98 -134 -128 -200 -148 -61 -18 -69 -36 -8 -19 84 23 120 46 211 140 76 78 101 112 138 188 58 118 97 242 105 335 6 73 6 73 -27 107 -37 38 -22 50 21 16 13 -10 48 -31 78 -46 30 -15 69 -40 85 -56 58 -55 116 -96 116 -83 0 3 9 -4 20 -17 13 -16 19 -19 20 -10 0 11 4 10 16 -5 8 -10 13 -12 9 -4 -4 8 2 5 14 -8 11 -12 22 -18 26 -13 3 6 20 2 43 -10 20 -12 47 -23 61 -26 37 -6 62 -23 55 -35 -5 -7 -2 -9 9 -5 10 4 16 2 14 -5 -1 -6 4 -13 12 -16 9 -3 11 0 6 8 -6 9 -3 9 14 1 11 -7 21 -16 21 -21 0 -5 11 -12 25 -16 14 -3 25 -11 25 -17 0 -8 3 -8 11 0 28 28 -13 54 -296 188 -91 43 -174 90 -209 119 -32 26 -81 58 -110 70 -28 13 -57 30 -65 39 -7 10 -24 17 -36 17 -13 0 -52 9 -87 20 -74 23 -81 24 -76 8z"/> <path d="M1606 983 c-6 -14 -5 -15 5 -6 7 7 10 15 7 18 -3 3 -9 -2 -12 -12z"/> <path d="M1040 979 c0 -5 5 -7 10 -4 6 3 10 8 10 11 0 2 -4 4 -10 4 -5 0 -10 -5 -10 -11z"/> <path d="M1900 960 c-8 -5 -12 -12 -9 -15 4 -3 12 1 19 10 14 17 11 19 -10 5z"/> <path d="M1107 944 c-3 -3 1 -13 9 -21 8 -9 18 -12 21 -9 4 4 0 13 -8 21 -8 9 -18 13 -22 9z"/> <path d="M1560 946 c0 -4 7 -14 15 -22 8 -9 15 -11 15 -6 0 5 -7 15 -15 22 -8 7 -15 9 -15 6z"/> <path d="M1773 938 c7 -19 -36 -63 -52 -53 -7 3 -11 -2 -11 -14 0 -27 1 -27 44 12 38 35 44 51 24 63 -7 5 -9 2 -5 -8z"/> <path d="M2123 916 c4 -22 11 -44 16 -49 7 -7 8 3 4 29 -3 21 -10 44 -16 49 -6 7 -8 -3 -4 -29z"/> <path d="M1302 910 c0 -14 2 -19 5 -12 2 6 2 18 0 25 -3 6 -5 1 -5 -13z"/> <path d="M1654 910 c3 -14 6 -32 6 -40 1 -8 6 -4 11 9 7 19 6 28 -7 40 -15 15 -16 14 -10 -9z"/> <path d="M1849 913 c-13 -16 -12 -17 4 -4 16 13 21 21 13 21 -2 0 -10 -8 -17 -17z"/> <path d="M1155 887 c1 -12 6 -22 12 -22 13 0 43 -31 43 -44 0 -6 7 -11 16 -11 8 0 13 4 10 9 -4 5 0 11 6 13 8 3 4 9 -10 17 -12 6 -22 22 -23 34 0 21 -1 21 -9 2 -7 -18 -9 -18 -15 -3 -10 26 -32 29 -30 5z"/> <path d="M1470 900 c-8 -5 -23 -7 -32 -4 -12 3 -18 0 -18 -10 0 -19 17 -30 25 -16 11 17 28 11 21 -7 -5 -15 -4 -15 9 1 8 11 15 26 15 33 0 15 -1 16 -20 3z"/> <path d="M1620 889 c0 -11 4 -18 10 -14 5 3 7 12 3 20 -7 21 -13 19 -13 -6z"/> <path d="M1230 880 c0 -11 4 -20 9 -20 5 0 7 9 4 20 -3 11 -7 20 -9 20 -2 0 -4 -9 -4 -20z"/> <path d="M1810 890 c0 -5 5 -10 11 -10 5 0 7 5 4 10 -3 6 -8 10 -11 10 -2 0 -4 -4 -4 -10z"/> <path d="M1301 864 c0 -11 3 -14 6 -6 3 7 2 16 -1 19 -3 4 -6 -2 -5 -13z"/> <path d="M1534 866 c4 -10 1 -25 -5 -32 -6 -7 -9 -19 -6 -26 3 -8 6 -6 6 5 1 10 6 15 11 12 13 -8 13 26 -1 45 -9 12 -10 12 -5 -4z"/> <path d="M1500 856 c-6 -9 -10 -21 -7 -28 4 -9 6 -7 6 4 1 9 7 18 14 21 6 2 9 7 6 11 -3 4 -12 0 -19 -8z"/> <path d="M1626 844 c-4 -9 -4 -19 -1 -22 2 -3 7 3 11 12 4 9 4 19 1 22 -2 3 -7 -3 -11 -12z"/> <path d="M1672 851 c-11 -7 -12 -12 -1 -29 11 -17 9 -24 -13 -50 -14 -17 -29 -28 -32 -24 -4 3 -4 -2 0 -13 7 -18 6 -19 -10 -5 -17 13 -18 12 -15 -5 6 -28 50 -32 66 -6 10 17 9 18 -10 13 -20 -5 -21 -4 -7 14 15 20 38 37 42 32 5 -4 48 36 48 44 0 5 -9 3 -20 -4 -17 -11 -22 -10 -30 2 -5 8 -8 21 -5 28 5 14 4 14 -13 3z"/> <path d="M1264 824 c3 -8 2 -12 -3 -9 -5 3 -13 0 -16 -5 -8 -13 23 -50 42 -50 7 0 13 -5 13 -11 0 -5 4 -8 9 -5 5 3 11 0 14 -8 3 -7 17 -16 31 -18 14 -3 23 -2 21 2 -2 4 7 12 20 18 26 12 34 42 12 42 -7 0 -21 15 -29 33 l-16 32 0 -37 c1 -24 5 -35 14 -31 21 8 25 -16 4 -27 -23 -12 -40 -6 -40 15 0 8 -6 12 -14 9 -7 -3 -16 1 -19 9 -4 11 0 13 14 10 32 -9 21 12 -16 30 -44 21 -49 21 -41 1z m31 -44 c3 -5 -1 -10 -9 -10 -9 0 -16 5 -16 10 0 6 4 10 9 10 6 0 13 -4 16 -10z"/> <path d="M2141 808 c0 -28 2 -30 9 -13 12 28 12 45 0 45 -5 0 -10 -15 -9 -32z"/> <path d="M1405 819 c-4 -6 -5 -12 -2 -15 2 -3 7 2 10 11 7 17 1 20 -8 4z"/> <path d="M1466 815 c-3 -8 -1 -15 4 -15 6 0 10 7 10 15 0 8 -2 15 -4 15 -2 0 -6 -7 -10 -15z"/> <path d="M1618 795 c-15 -13 -24 -25 -21 -28 3 -3 17 5 31 18 34 32 25 40 -10 10z"/> <path d="M1570 800 c0 -5 7 -7 15 -4 8 4 15 8 15 10 0 2 -7 4 -15 4 -8 0 -15 -4 -15 -10z"/> <path d="M1472 769 c3 -20 -3 -24 -39 -32 -41 -8 -60 -27 -28 -27 8 0 15 5 15 11 0 8 5 7 15 -1 12 -10 19 -10 27 -2 15 15 48 16 48 1 0 -5 4 -8 10 -4 6 3 6 15 0 29 -5 13 -6 27 -2 32 4 4 1 4 -6 0 -7 -4 -19 -2 -28 4 -12 11 -14 9 -12 -11z"/> <path d="M1555 748 c4 -44 3 -44 16 -31 8 8 8 17 0 31 -8 15 -8 22 2 25 7 4 6 6 -4 6 -13 1 -16 -7 -14 -31z"/> <path d="M2146 718 c1 -69 2 -70 24 -58 11 6 19 18 19 28 -1 16 -2 16 -6 0 -2 -10 -11 -18 -19 -18 -18 0 -18 29 0 36 11 4 11 10 2 30 -16 35 -21 30 -20 -18z"/> <path d="M1735 740 c-3 -5 -1 -10 4 -10 6 0 11 5 11 10 0 6 -2 10 -4 10 -3 0 -8 -4 -11 -10z"/> <path d="M1405 650 c-3 -5 -1 -10 4 -10 6 0 11 5 11 10 0 6 -2 10 -4 10 -3 0 -8 -4 -11 -10z"/> <path d="M2145 630 c-3 -5 -1 -10 4 -10 6 0 11 5 11 10 0 6 -2 10 -4 10 -3 0 -8 -4 -11 -10z"/> <path d="M1296 617 c3 -10 9 -15 12 -12 3 3 0 11 -7 18 -10 9 -11 8 -5 -6z"/> <path d="M1550 579 c0 -5 5 -7 10 -4 6 3 10 8 10 11 0 2 -4 4 -10 4 -5 0 -10 -5 -10 -11z"/> <path d="M1340 566 c0 -2 7 -12 16 -20 17 -18 39 -22 29 -6 -7 11 -45 33 -45 26z"/> <path d="M1520 540 c-14 -11 -21 -20 -16 -20 5 0 -3 -10 -18 -21 -33 -26 -27 -37 8 -14 19 13 64 76 53 75 -1 0 -13 -9 -27 -20z"/> <path d="M2140 528 c0 -12 -5 -15 -17 -11 -11 4 -14 3 -9 -5 8 -14 32 -16 40 -4 2 4 1 14 -5 22 -7 13 -9 12 -9 -2z"/> <path d="M1390 512 c0 -5 7 -9 15 -9 8 0 12 4 9 9 -3 4 -9 8 -15 8 -5 0 -9 -4 -9 -8z"/> <path d="M2015 499 c-4 -6 -5 -13 -2 -16 7 -7 27 6 27 18 0 12 -17 12 -25 -2z"/> <path d="M2090 477 c-15 -24 -22 -67 -12 -67 8 0 35 80 30 86 -2 2 -10 -7 -18 -19z"/> <path d="M2120 451 c0 -11 -4 -23 -10 -26 -13 -8 -13 -25 1 -25 5 0 8 4 5 9 -3 5 1 14 9 21 17 14 20 40 5 40 -5 0 -10 -9 -10 -19z"/> <path d="M2046 349 c-10 -17 -16 -33 -13 -36 3 -3 13 9 22 27 21 41 14 48 -9 9z"/> <path d="M1255 220 c-3 -5 1 -10 10 -10 9 0 13 5 10 10 -3 6 -8 10 -10 10 -2 0 -7 -4 -10 -10z"/> <path d="M1294 209 c-3 -5 3 -12 13 -16 10 -4 21 -11 25 -17 5 -7 8 -7 8 2 0 7 5 10 10 7 6 -3 10 -4 10 -1 0 10 -60 34 -66 25z"/> <path d="M1367 166 c-6 -15 1 -26 15 -26 11 0 10 27 -1 34 -5 3 -11 0 -14 -8z"/> <path d="M1450 159 c0 -5 5 -7 10 -4 6 3 10 8 10 11 0 2 -4 4 -10 4 -5 0 -10 -5 -10 -11z"/> <path d="M1560 155 c0 -9 5 -15 11 -13 6 2 11 8 11 13 0 5 -5 11 -11 13 -6 2 -11 -4 -11 -13z"/> </g> </svg> 