<?xml version="1.0" standalone="no"?>
<!DOCTYPE svg PUBLIC "-//W3C//DTD SVG 20010904//EN"
 "http://www.w3.org/TR/2001/REC-SVG-20010904/DTD/svg10.dtd">
<svg version="1.0" xmlns="http://www.w3.org/2000/svg"
 width="900.000000pt" height="1155.000000pt" viewBox="0 0 900.000000 1155.000000"
 preserveAspectRatio="xMidYMid meet">
<metadata>
Created by potrace 1.10, written by Peter Selinger 2001-2011
</metadata>
<g transform="translate(0.000000,1155.000000) scale(0.100000,-0.100000)"
fill="#ff0000" stroke="none">
<path d="M3975 10830 c-104 -24 -257 -49 -370 -61 -214 -22 -474 -64 -539 -85
-28 -10 -64 -25 -81 -36 -16 -10 -43 -18 -59 -18 -45 0 -146 -54 -211 -112
-51 -46 -120 -101 -244 -192 -14 -11 -42 -34 -61 -52 -19 -17 -66 -48 -105
-68 -77 -39 -146 -99 -250 -219 -52 -60 -92 -93 -167 -139 -55 -33 -107 -72
-116 -86 -9 -14 -78 -88 -152 -164 -144 -149 -165 -177 -156 -213 9 -34 -1
-51 -40 -74 -39 -23 -41 -37 -14 -91 16 -31 18 -45 10 -66 -8 -19 -7 -30 2
-41 7 -8 17 -25 23 -37 7 -13 19 -20 33 -18 12 1 32 3 45 5 17 1 23 -4 25 -25
2 -15 -2 -37 -9 -49 -34 -65 -60 -217 -69 -404 -5 -104 -13 -233 -19 -285 -26
-243 -28 -313 -19 -525 5 -121 11 -287 14 -370 2 -82 11 -208 20 -280 9 -71
20 -159 24 -195 20 -165 55 -336 92 -454 40 -126 41 -129 24 -160 -17 -31 -17
-32 29 -125 35 -71 49 -91 58 -82 25 25 24 510 -3 746 -6 55 -13 156 -16 225
-4 110 -2 132 17 182 17 47 19 63 10 89 -13 39 -5 57 51 102 45 37 158 202
158 231 0 9 -6 27 -14 39 -10 15 -14 54 -13 124 0 62 -5 114 -13 133 -15 36
-8 275 10 351 5 24 12 60 15 79 4 24 24 55 63 99 55 60 60 63 87 54 19 -6 32
-19 38 -39 5 -16 25 -63 44 -104 62 -131 76 -118 83 78 l5 147 45 79 c32 56
54 83 75 92 17 7 33 10 37 6 4 -4 14 -43 23 -87 9 -44 21 -85 27 -92 16 -20
34 -4 48 40 14 45 50 107 63 107 4 0 7 -8 7 -18 0 -26 10 -33 32 -21 18 10 18
6 12 -73 -3 -46 -11 -99 -17 -118 -6 -19 -9 -51 -8 -70 1 -19 -3 -81 -10 -136
-6 -56 -9 -118 -5 -138 6 -32 10 -36 37 -36 37 0 42 -12 65 -150 9 -58 23
-122 30 -144 8 -21 14 -53 14 -70 0 -47 21 -81 50 -81 29 0 27 -24 15 240 -8
169 1 245 44 413 28 108 121 252 162 252 24 0 24 -11 -1 -61 -18 -35 -19 -44
-9 -82 7 -23 15 -45 19 -50 3 -4 25 13 48 37 35 36 53 47 98 56 63 13 185 69
256 116 51 35 115 60 126 50 14 -15 -36 -76 -131 -161 -169 -150 -253 -234
-288 -286 -31 -44 -50 -56 -84 -49 -30 5 -49 -102 -23 -128 19 -19 27 -15 43
25 8 20 41 61 73 92 31 31 102 105 157 165 93 101 192 191 268 243 18 12 47
34 64 48 18 15 57 36 85 47 85 31 190 88 230 124 20 18 54 42 75 54 21 11 45
24 53 29 68 39 168 81 230 96 41 10 86 26 100 35 14 9 47 31 73 49 55 36 208
96 282 110 28 5 64 15 80 22 17 7 71 13 120 15 99 3 206 18 235 34 12 6 37 6
76 -1 41 -8 64 -8 81 0 14 6 28 9 33 6 8 -5 87 -23 121 -28 9 -1 40 -14 70
-29 30 -15 65 -29 79 -32 14 -3 48 -26 77 -51 42 -37 58 -45 91 -45 25 0 49
-8 67 -21 15 -12 58 -35 96 -50 128 -52 190 -127 174 -213 -4 -20 -2 -36 4
-40 6 -4 11 -24 11 -44 1 -46 20 -72 53 -72 42 0 56 -10 94 -67 33 -50 36 -62
35 -115 -2 -66 22 -217 39 -249 8 -15 7 -34 -1 -71 -8 -33 -10 -70 -5 -107 5
-31 9 -92 9 -136 1 -66 5 -87 25 -118 l23 -38 -22 -24 c-12 -13 -21 -27 -19
-32 31 -71 116 -188 191 -264 93 -95 115 -132 143 -237 14 -55 36 -242 50
-420 4 -46 13 -102 21 -124 11 -33 42 -202 70 -393 8 -48 33 -115 44 -115 9 0
21 30 54 135 22 71 23 82 10 100 -30 41 -32 60 -17 140 8 44 18 119 23 167 5
47 13 104 19 125 6 21 11 67 11 103 0 36 5 103 11 150 6 47 12 245 14 440 2
195 8 405 15 465 7 61 14 131 17 156 3 32 -3 77 -21 142 -14 52 -26 111 -26
131 0 20 -7 53 -15 73 -8 19 -15 45 -15 57 0 11 -21 57 -47 101 -25 44 -68
121 -94 170 -25 50 -56 107 -67 129 -12 21 -29 72 -38 112 -10 47 -24 82 -40
100 -23 24 -25 34 -24 113 1 177 0 185 -27 241 -15 30 -38 66 -53 80 -17 17
-29 42 -34 69 -11 71 -79 181 -111 181 -7 0 -41 31 -75 69 -69 78 -143 133
-210 156 -59 21 -74 36 -117 118 -41 77 -114 146 -193 183 -70 32 -134 78
-211 150 -60 56 -141 104 -176 104 -7 0 -35 20 -61 44 -75 70 -93 75 -244 78
-73 1 -161 -2 -196 -6 -61 -9 -64 -8 -140 32 -73 38 -84 41 -187 46 -61 3
-159 13 -220 21 -286 41 -296 41 -410 15z"/>
<path d="M5615 7158 c-257 -37 -376 -50 -417 -45 -45 6 -129 -13 -185 -41 -23
-12 -52 -21 -65 -20 -38 2 -118 -30 -143 -60 l-24 -27 -16 23 c-28 39 -49 28
-84 -45 -18 -38 -36 -76 -41 -85 -6 -11 -6 -27 0 -42 5 -14 6 -41 3 -61 -4
-26 -1 -41 12 -55 23 -25 36 -25 68 1 l27 20 35 -28 c19 -15 35 -31 35 -34 0
-4 -16 -19 -35 -33 -36 -28 -94 -104 -157 -209 -47 -79 -61 -163 -30 -188 12
-9 24 -28 28 -43 9 -38 49 -36 72 4 9 16 27 35 40 42 27 14 52 57 52 88 0 34
42 67 104 81 91 20 88 10 -31 -88 -28 -23 -43 -43 -43 -59 0 -19 7 -24 45 -30
54 -8 205 3 255 18 19 6 41 13 49 15 11 3 5 12 -17 33 -18 16 -32 36 -32 46 0
19 81 104 99 104 7 0 20 -14 29 -31 9 -18 35 -59 56 -92 31 -46 37 -63 29 -76
-6 -9 -19 -15 -29 -13 -84 15 -87 15 -81 -3 4 -9 7 -19 7 -21 0 -2 13 -4 30
-4 19 0 33 -7 40 -20 15 -29 36 -25 76 15 37 37 48 41 88 25 16 -6 24 -15 20
-24 -3 -8 5 -24 18 -36 19 -17 30 -20 62 -15 27 4 46 1 62 -10 19 -12 25 -13
28 -3 14 47 14 47 50 41 23 -4 42 0 57 11 13 9 31 16 40 16 9 0 22 6 28 14 6
7 37 16 68 20 31 4 63 12 70 18 8 6 37 15 66 19 57 9 87 35 87 74 0 12 -6 28
-14 34 -8 7 -26 36 -39 66 -39 81 -104 124 -219 145 -26 5 -56 13 -67 19 -11
6 -75 14 -143 17 -68 2 -149 9 -180 15 -32 5 -114 12 -184 14 -90 3 -137 9
-165 22 -64 28 -54 35 86 71 44 11 121 28 170 37 50 9 122 23 160 31 108 22
289 34 334 22 30 -8 55 -6 103 6 36 9 83 16 105 16 55 0 130 -33 144 -64 6
-13 20 -27 30 -29 11 -3 19 -14 19 -25 0 -37 72 -45 91 -11 15 29 3 152 -20
194 -57 106 -118 146 -259 165 -45 6 -143 27 -217 45 -142 37 -145 37 -240 23z
m120 -788 c28 -31 12 -65 -50 -105 -49 -31 -105 -46 -105 -28 0 17 116 153
130 153 4 0 15 -9 25 -20z"/>
<path d="M2810 7039 c-30 -5 -74 -17 -97 -25 -23 -9 -49 -14 -57 -11 -9 4 -39
0 -68 -8 -29 -7 -81 -17 -116 -21 -41 -4 -76 -15 -98 -30 -19 -13 -39 -24 -43
-24 -4 0 -29 -16 -55 -35 -44 -34 -60 -65 -33 -65 28 -1 40 -17 27 -40 -21
-39 3 -42 64 -9 32 18 65 29 77 26 10 -3 72 2 137 10 127 16 230 17 269 2 13
-5 48 -9 77 -9 29 0 77 -4 107 -10 30 -5 109 -14 176 -19 67 -6 132 -15 143
-21 31 -16 122 -30 233 -36 79 -3 102 -1 122 12 14 9 36 14 50 12 19 -4 32 2
50 24 14 16 25 35 25 42 0 20 -125 114 -178 134 -98 37 -438 93 -597 97 -49 2
-106 5 -125 8 -19 3 -60 1 -90 -4z"/>
<path d="M3080 6629 c-169 -28 -197 -36 -285 -80 -137 -70 -192 -109 -220
-160 -40 -74 -30 -109 30 -109 17 0 41 -7 53 -16 12 -8 32 -14 45 -12 20 3 22
8 19 55 -3 46 -1 55 24 78 38 36 74 43 90 19 30 -43 35 -45 80 -38 37 5 44 4
44 -10 0 -9 -11 -21 -25 -26 -30 -11 -31 -25 -5 -67 23 -39 68 -50 137 -34 26
6 60 13 75 16 31 6 89 101 109 178 6 26 15 50 20 53 5 3 33 -15 62 -39 62 -53
91 -69 110 -61 16 6 47 -20 47 -41 0 -7 -25 -23 -55 -35 -30 -12 -55 -26 -55
-31 0 -21 202 2 229 27 11 10 8 15 -15 30 -16 10 -35 26 -42 36 -7 9 -60 54
-117 98 -58 45 -105 86 -105 92 0 6 21 8 59 3 103 -12 88 37 -22 74 -73 25
-133 25 -287 0z"/>
<path d="M7181 6295 c-51 -47 -64 -73 -51 -96 6 -9 19 -3 49 24 46 42 73 46
98 17 37 -42 78 -12 52 37 -14 27 -64 63 -87 63 -7 0 -35 -20 -61 -45z"/>
<path d="M6771 5257 c-8 -15 -11 -30 -8 -34 12 -12 29 14 25 38 -3 22 -3 22
-17 -4z"/>
<path d="M4728 4759 c-56 -20 -68 -30 -170 -144 -105 -116 -119 -145 -73 -145
15 0 36 11 50 26 64 71 115 114 133 114 9 0 27 3 40 6 17 5 22 2 22 -13 0 -25
-30 -53 -58 -53 -32 0 -182 -152 -182 -185 0 -22 -4 -25 -35 -25 -19 0 -35 -4
-35 -8 0 -5 -11 -14 -24 -20 -13 -6 -27 -20 -31 -31 -9 -30 -22 -26 -53 18
-37 54 -61 64 -117 49 -38 -10 -47 -10 -63 5 -10 9 -26 17 -35 17 -9 0 -24 11
-33 25 -15 23 -21 25 -67 19 -41 -6 -49 -4 -45 7 13 35 19 59 14 59 -3 0 -20
-6 -38 -14 -18 -8 -44 -17 -58 -20 -26 -5 -83 -48 -224 -168 -43 -37 -83 -65
-88 -62 -5 3 -23 -3 -41 -14 -18 -10 -50 -22 -72 -26 -28 -6 -52 -22 -90 -62
-29 -30 -57 -54 -63 -54 -9 0 -11 -90 -3 -132 2 -15 31 -8 31 7 0 14 44 59 58
60 18 2 52 17 52 24 0 5 13 25 30 46 l30 37 9 -23 c21 -49 38 -62 75 -56 24 4
39 1 47 -9 16 -19 38 -18 74 6 17 11 36 20 43 20 7 0 25 9 40 19 15 11 50 21
80 24 l53 4 26 -46 c15 -25 28 -48 30 -51 3 -3 24 18 47 45 40 46 46 49 67 38
36 -18 117 -25 304 -27 164 -1 172 -2 215 -27 51 -30 185 -48 220 -29 27 14
132 -16 161 -46 l21 -22 -26 -17 c-14 -9 -30 -14 -36 -10 -6 4 -51 8 -101 10
l-91 4 -35 -34 c-20 -19 -43 -35 -51 -35 -9 0 -23 -6 -31 -13 -40 -34 -214
-75 -254 -60 -12 4 -76 8 -142 9 -66 0 -149 6 -183 12 -69 13 -90 9 -71 -14 7
-8 31 -14 58 -15 54 -1 91 -14 146 -51 35 -24 50 -27 130 -28 184 -4 262 4
287 27 39 36 177 49 218 20 12 -8 29 -13 38 -10 8 4 13 2 10 -3 -4 -5 23 -10
60 -11 58 -2 71 1 114 29 26 17 48 35 48 39 0 4 23 22 50 40 28 18 50 36 50
41 0 4 25 20 56 35 44 21 59 24 77 15 12 -6 44 -14 71 -17 l49 -7 -7 44 c-3
24 -9 60 -12 80 -4 26 -22 55 -60 97 -60 66 -167 155 -199 165 -11 3 -45 22
-75 41 -30 19 -62 35 -71 35 -19 0 -165 115 -203 160 -34 42 -33 64 7 92 17
12 41 30 51 40 11 10 22 18 26 18 3 0 14 14 24 31 14 24 16 33 6 42 -10 9 -14
9 -17 0 -3 -7 -16 -13 -30 -13 -19 0 -23 4 -18 19 4 13 -1 24 -17 35 -28 20
-49 19 -120 -5z"/>
<path d="M3970 4752 c0 -20 61 -72 84 -72 31 0 33 13 6 40 -30 30 -90 51 -90
32z"/>
<path d="M3530 3835 c0 -22 41 -45 85 -48 47 -3 58 18 18 34 -15 6 -36 15 -45
20 -27 14 -58 11 -58 -6z"/>
<path d="M3835 3790 c-8 -13 15 -13 35 0 12 8 11 10 -7 10 -12 0 -25 -4 -28
-10z"/>
<path d="M4780 3404 c-25 -8 -65 -20 -90 -28 -59 -19 -227 -31 -420 -31 -85 0
-161 -4 -167 -8 -7 -5 -13 -26 -13 -48 0 -33 4 -41 26 -49 14 -6 37 -10 51
-10 15 0 33 -10 45 -25 13 -17 29 -25 51 -25 19 0 55 -14 88 -35 42 -26 73
-37 117 -41 55 -6 59 -5 65 16 5 21 10 22 50 17 42 -6 45 -5 75 35 18 23 32
47 32 54 0 16 32 34 60 34 13 0 36 15 54 34 17 19 44 38 59 41 41 11 46 34 13
62 -31 27 -36 27 -96 7z"/>
<path d="M5944 3249 c-54 -50 -103 -98 -107 -105 -8 -13 -188 -148 -230 -171
-18 -10 -24 -8 -43 13 -13 13 -31 24 -42 24 -27 0 -42 20 -42 57 0 40 -17 44
-26 6 -24 -95 -130 -248 -188 -274 -12 -5 -33 -19 -48 -30 -24 -19 -30 -20
-56 -10 -25 10 -35 10 -60 -3 -39 -20 -63 -20 -88 -1 -30 23 -69 19 -88 -11
-11 -16 -24 -24 -39 -22 -16 2 -26 -6 -39 -34 -10 -21 -23 -38 -28 -38 -6 0
-18 -16 -27 -35 l-17 -36 -14 26 c-11 21 -16 24 -28 14 -8 -6 -14 -15 -14 -20
0 -11 -32 -49 -41 -49 -4 0 -9 8 -12 19 -3 12 -16 20 -37 23 -26 4 -34 1 -43
-19 -12 -27 -32 -30 -45 -6 -9 15 -13 14 -40 -8 -36 -29 -52 -59 -52 -102 l-1
-32 -16 40 c-9 22 -15 58 -14 80 1 22 3 56 4 75 1 25 -2 35 -13 35 -21 0 -38
-90 -22 -116 17 -26 15 -35 -10 -71 -40 -56 -52 -68 -68 -68 -24 0 -62 30 -56
45 2 7 -1 21 -8 31 -11 14 -22 16 -63 11 -36 -4 -56 -2 -69 8 -22 17 -130 20
-139 5 -4 -6 -12 -7 -18 -3 -11 7 -78 21 -128 27 -14 1 -47 18 -72 36 -44 31
-49 33 -84 22 -30 -9 -42 -9 -60 3 -12 8 -32 15 -44 15 -19 0 -21 -4 -15 -37
4 -21 14 -42 23 -48 9 -5 57 -51 107 -101 50 -51 105 -99 121 -107 17 -9 47
-32 68 -51 21 -20 42 -36 46 -36 5 0 23 -13 39 -29 25 -23 43 -29 99 -35 37
-3 87 -13 110 -21 49 -17 176 -22 250 -11 33 6 57 5 65 -1 7 -6 29 -13 48 -17
49 -9 100 -42 100 -65 0 -10 6 -24 14 -30 8 -6 19 -33 26 -59 6 -26 18 -54 26
-63 8 -8 15 -27 16 -40 3 -32 -20 -86 -38 -93 -8 -3 -14 -16 -14 -28 l1 -23
22 25 c29 33 91 51 164 48 48 -1 65 3 99 24 22 15 59 32 82 39 51 15 65 44 32
69 -20 15 -21 18 -6 33 9 8 24 18 34 21 23 8 52 67 52 105 0 16 -9 40 -20 54
-26 33 -25 41 6 66 31 24 54 27 54 7 0 -20 25 -37 44 -30 11 4 16 15 14 33 -2
21 -9 27 -38 31 -27 4 -36 10 -38 28 -7 44 50 152 80 152 27 0 48 11 48 25 0
12 70 78 157 147 153 122 333 292 333 315 0 5 23 26 51 48 27 22 63 60 79 85
16 25 43 63 59 85 43 57 60 90 81 153 18 53 18 72 1 72 -4 0 -52 -41 -107 -91z"/>
<path d="M2320 3053 c-49 -19 -149 -99 -240 -194 l-105 -108 -97 -20 c-56 -12
-120 -33 -154 -51 -31 -16 -63 -30 -71 -30 -29 0 -290 -143 -353 -194 -88 -70
-188 -133 -246 -155 -27 -10 -105 -48 -174 -85 -252 -135 -470 -239 -670 -319
l-205 -82 -3 -908 -2 -907 4500 0 4500 0 0 865 c0 822 -1 865 -18 865 -10 0
-59 24 -109 54 -143 85 -507 268 -788 396 -398 182 -483 228 -555 300 -125
125 -223 189 -440 288 -47 21 -104 55 -127 75 -73 60 -110 78 -195 92 -119 19
-159 30 -292 74 -93 32 -123 38 -138 30 -16 -9 -19 -17 -14 -41 7 -38 23 -58
56 -72 14 -6 74 -40 134 -75 193 -114 297 -244 312 -388 20 -186 -118 -673
-248 -879 -30 -47 -101 -96 -96 -67 2 10 -7 22 -22 29 -20 11 -27 11 -42 -2
-11 -11 -26 -14 -47 -9 -23 5 -32 2 -40 -13 -12 -23 -5 -32 24 -32 21 0 55
-28 55 -44 0 -5 -11 -21 -25 -38 -14 -16 -25 -42 -25 -57 0 -34 -43 -84 -68
-79 -27 6 -24 105 6 142 23 30 29 56 13 56 -16 0 -108 -100 -127 -138 -75
-147 -187 -283 -266 -323 -20 -10 -40 -23 -43 -29 -4 -6 -28 -20 -53 -32 -26
-12 -57 -30 -70 -41 -31 -29 -84 -60 -177 -105 -112 -55 -283 -213 -353 -329
-50 -81 -193 -142 -332 -143 -103 0 -120 8 -85 38 14 12 25 29 25 37 0 8 6 24
12 35 11 17 10 25 -2 48 -22 38 -92 55 -180 42 -87 -13 -347 -16 -493 -6 -140
10 -152 5 -142 -60 6 -40 5 -42 -24 -46 -38 -6 -213 34 -305 68 -63 24 -129
63 -286 171 -90 62 -165 109 -222 138 -78 40 -306 195 -382 260 -33 29 -81 78
-106 109 -25 32 -71 90 -102 129 -77 97 -147 236 -197 389 -23 71 -53 154 -67
185 -47 103 -142 399 -149 464 -4 35 -14 84 -21 109 -8 25 -14 79 -14 120 0
93 18 135 102 238 74 93 110 167 106 218 -3 38 -12 47 -38 37z m3866 -2100
c-11 -11 -17 4 -9 23 7 18 8 18 11 1 2 -10 1 -21 -2 -24z"/>
<path d="M4285 2630 c-4 -7 -3 -16 3 -22 14 -14 47 -6 47 12 0 18 -40 26 -50
10z"/>
<path d="M6420 2470 c0 -13 5 -20 13 -17 6 2 12 10 12 17 0 7 -6 15 -12 18 -8
2 -13 -5 -13 -18z"/>
<path d="M6440 2185 c0 -44 3 -55 16 -55 12 0 15 6 10 23 -3 12 -6 37 -6 55 0
17 -4 32 -10 32 -5 0 -10 -25 -10 -55z"/>
<path d="M4556 1581 c-10 -11 -15 -25 -11 -31 5 -7 12 -1 21 16 18 34 13 40
-10 15z"/>
<path d="M6067 1502 c-29 -18 -32 -45 -6 -50 9 -1 27 6 40 17 21 18 22 21 9
35 -13 13 -18 13 -43 -2z"/>
</g>
</svg>
