 <svg  version="1.0" xmlns="http://www.w3.org/2000/svg"  width="300.000000pt" height="385.000000pt" viewBox="0 0 300.000000 385.000000"  preserveAspectRatio="xMidYMid meet">  <g transform="translate(0.000000,385.000000) scale(0.100000,-0.100000)" fill="#ff0000" stroke="none"> <path d="M1270 3605 c-36 -7 -98 -16 -139 -20 -109 -11 -186 -42 -272 -112 -41 -33 -80 -62 -87 -64 -33 -11 -301 -270 -284 -276 21 -8 13 -23 -13 -23 -29 0 -31 -7 -8 -32 15 -17 15 -20 3 -28 -13 -8 -12 -11 5 -24 17 -12 21 -12 33 5 7 11 11 28 7 38 -8 27 28 101 50 101 3 0 18 14 32 30 26 32 46 40 37 15 -4 -8 -2 -15 3 -15 15 0 33 23 33 41 0 21 38 69 53 66 6 -1 11 3 12 8 1 19 26 55 37 55 6 0 34 20 62 43 28 24 69 55 91 69 49 30 138 61 162 56 10 -3 31 2 46 9 15 8 58 16 95 20 37 3 75 10 86 15 12 7 22 6 29 -1 7 -7 2 -14 -16 -22 -15 -7 -27 -19 -26 -28 0 -10 2 -11 6 -4 2 7 21 15 41 19 20 4 46 13 58 21 27 17 118 7 110 -13 -3 -7 -1 -16 4 -19 6 -4 10 -1 10 6 0 7 13 10 35 7 36 -4 47 5 20 16 -8 3 -15 10 -15 15 0 12 41 -8 65 -32 13 -14 27 -16 60 -11 53 7 82 -6 141 -65 13 -13 27 -22 30 -18 11 11 124 -98 124 -120 0 -20 32 -52 46 -46 17 6 93 -28 94 -42 0 -6 14 -16 30 -24 34 -15 35 -34 2 -39 -12 -2 -22 -10 -22 -19 0 -10 6 -14 20 -10 10 3 24 -1 30 -7 7 -10 3 -16 -17 -25 -18 -8 -23 -15 -15 -23 6 -6 8 -16 6 -23 -3 -6 2 -18 11 -25 9 -7 15 -9 13 -3 -2 6 8 20 21 32 19 16 21 24 12 35 -8 10 -9 16 -1 21 7 4 5 13 -5 28 -8 12 -15 30 -15 40 0 25 -133 157 -159 157 -14 0 -25 11 -35 34 -10 24 -28 42 -58 57 -24 12 -60 37 -81 55 -20 19 -43 34 -50 34 -8 0 -22 9 -33 21 -16 17 -28 20 -89 18 -39 -2 -77 1 -85 6 -16 10 -189 34 -240 34 -19 -1 -64 -7 -100 -14z"/> <path d="M1195 3540 c-26 -7 -22 -8 23 -9 29 0 52 3 52 9 0 11 -31 11 -75 0z"/> <path d="M1016 3494 c-49 -18 -52 -20 -27 -27 11 -2 36 6 58 19 43 26 28 30 -31 8z"/> <path d="M1254 3488 c-4 -7 -15 -24 -23 -38 -22 -33 3 -17 29 20 12 17 17 30 11 30 -5 0 -13 -6 -17 -12z"/> <path d="M1355 3205 c-39 -15 -52 -24 -37 -24 13 -1 33 4 45 11 12 7 29 13 38 15 8 1 26 7 40 12 l24 10 -25 0 c-14 0 -52 -11 -85 -24z"/> <path d="M562 3114 c-13 -20 -21 -38 -18 -42 3 -3 7 -3 9 -1 1 2 12 18 25 36 23 34 27 43 15 43 -5 0 -18 -16 -31 -36z"/> <path d="M1377 3143 c-15 -2 -40 -11 -55 -20 -26 -14 -26 -15 -2 -8 14 3 51 10 82 14 32 4 61 10 64 14 8 7 -41 7 -89 0z"/> <path d="M2025 3080 c-3 -6 -2 -10 3 -10 5 0 24 -15 42 -32 31 -33 31 -33 19 -6 -14 32 -55 63 -64 48z"/> <path d="M871 3038 c-17 -18 -34 -44 -38 -58 -3 -14 -9 -29 -13 -35 -8 -11 -22 -75 -16 -75 7 0 60 115 58 124 -2 5 9 22 24 37 15 16 25 31 22 34 -3 4 -20 -9 -37 -27z"/> <path d="M1423 3055 c-10 -10 -9 -16 2 -25 12 -10 15 -9 15 4 0 9 7 16 15 16 8 0 15 5 15 10 0 15 -33 11 -47 -5z"/> <path d="M1326 3024 c-54 -37 -65 -46 -187 -158 -60 -55 -110 -105 -113 -113 -11 -27 -26 -12 -26 25 0 49 19 84 50 92 30 8 98 53 116 78 21 27 16 38 -6 14 -12 -12 -28 -22 -37 -22 -9 0 -34 -12 -55 -26 -21 -15 -41 -24 -45 -21 -21 22 -47 -152 -30 -203 3 -8 12 -41 21 -74 14 -55 39 -96 57 -96 5 0 0 15 -10 34 -11 18 -27 58 -37 89 l-17 55 48 57 c27 31 60 65 74 76 14 11 60 54 102 95 42 40 80 74 83 74 4 0 24 11 44 25 20 14 30 25 22 25 -9 0 -33 -12 -54 -26z"/> <path d="M2211 3027 c-6 -14 -15 -27 -21 -29 -15 -5 29 -77 48 -78 6 0 12 -7 12 -15 0 -9 7 -26 16 -40 15 -23 36 -132 35 -190 -1 -210 -2 -267 -7 -307 -7 -52 -19 -64 -19 -20 -1 45 -14 115 -24 125 -17 17 -21 -11 -10 -60 6 -26 13 -77 15 -113 2 -36 8 -96 15 -135 6 -38 9 -118 7 -178 -5 -128 10 -129 18 -1 4 49 10 99 15 111 5 13 6 29 3 37 -3 8 0 49 6 92 10 65 24 365 23 489 0 38 -22 147 -33 160 -21 26 -70 128 -70 145 0 29 -19 34 -29 7z"/> <path d="M517 2997 c-57 -129 -46 -718 15 -852 9 -20 9 -28 0 -34 -8 -5 -7 -17 7 -46 10 -22 23 -51 29 -65 8 -20 11 -1 11 91 1 125 -8 241 -18 235 -3 -3 -6 23 -6 57 1 74 -4 87 -20 57 l-12 -23 -5 27 c-3 15 -1 29 3 32 12 7 11 54 -1 54 -7 0 -8 26 -4 73 4 39 8 99 9 132 4 82 15 192 25 239 8 37 4 66 -9 66 -3 0 -14 -19 -24 -43z"/> <path d="M920 2990 c-12 -17 -26 -46 -30 -63 -4 -18 -15 -59 -24 -92 -9 -32 -15 -75 -15 -95 1 -19 3 -27 6 -17 2 9 11 17 19 17 8 0 13 -4 9 -9 -7 -13 15 -153 28 -169 18 -24 29 3 18 44 -17 60 -13 162 9 224 25 70 25 81 0 50 -13 -17 -20 -20 -20 -10 0 27 29 60 48 53 16 -6 16 -6 -1 11 -17 17 -18 17 -37 -6 -18 -22 -19 -22 -20 -3 0 11 9 35 21 54 26 43 18 52 -11 11z m-24 -197 c-9 -40 -11 -43 -14 -19 -4 35 6 79 17 72 4 -3 3 -26 -3 -53z"/> <path d="M2076 2953 c-14 -29 -24 -53 -21 -53 11 0 57 80 53 92 -3 7 -17 -11 -32 -39z"/> <path d="M677 2963 c-11 -10 -8 -61 3 -68 6 -4 10 10 10 34 0 42 -2 46 -13 34z"/> <path d="M714 2924 c-9 -36 1 -153 15 -167 8 -8 11 12 10 74 0 46 3 92 6 102 5 12 2 17 -9 17 -8 0 -19 -12 -22 -26z"/> <path d="M2177 2623 c-7 -11 11 -73 21 -72 4 1 5 6 4 13 -2 6 -6 22 -9 36 -5 29 -9 34 -16 23z"/> <path d="M601 2586 c-17 -20 7 -60 26 -44 18 15 16 31 -3 24 -12 -4 -14 -1 -9 14 7 24 2 26 -14 6z"/> <path d="M2149 2531 c12 -22 51 -47 51 -33 0 4 -14 19 -31 31 -29 22 -30 22 -20 2z"/> <path d="M1667 2350 c-10 -10 -26 -16 -36 -13 -15 4 -19 -4 -25 -43 -6 -49 1 -74 10 -37 3 11 17 26 30 32 15 7 22 16 18 23 -5 7 0 9 14 6 13 -4 23 0 26 8 3 8 0 14 -7 14 -7 0 -3 7 7 15 20 15 20 15 0 14 -10 0 -27 -8 -37 -19z"/> <path d="M1824 2353 c-10 -15 -15 -16 -33 -5 -30 18 -47 15 -64 -10 -8 -13 -26 -35 -41 -50 l-27 -26 43 5 c24 3 98 13 164 23 113 17 204 17 204 0 0 -4 11 -12 25 -18 23 -11 36 0 15 13 -5 3 -7 12 -4 19 7 18 -44 51 -81 53 -16 1 -55 5 -85 9 l-55 7 24 -20 24 -19 -39 4 c-21 3 -43 11 -49 19 -8 11 -12 10 -21 -4z"/> <path d="M938 2344 c-3 -3 -32 -7 -65 -10 -32 -3 -72 -11 -90 -20 -29 -13 -73 -61 -73 -79 0 -12 54 5 74 23 31 28 338 17 422 -15 10 -4 12 0 8 12 -7 16 -6 17 18 1 21 -13 27 -14 31 -4 4 11 7 11 15 0 8 -11 10 -11 15 1 7 18 -1 27 -23 27 -10 0 -23 7 -30 15 -7 8 -29 19 -49 24 -86 23 -94 24 -87 12 4 -6 2 -11 -3 -11 -6 0 -11 5 -11 11 0 5 -8 9 -17 7 -10 -1 -23 1 -29 5 -6 3 -25 0 -41 -8 -16 -8 -45 -17 -64 -20 l-34 -6 33 15 c17 8 32 18 32 21 0 7 -25 7 -32 -1z"/> <path d="M1566 2334 c-3 -8 -3 -34 0 -57 4 -28 2 -38 -4 -28 -6 8 -12 9 -16 3 -8 -14 13 -27 24 -16 14 14 24 114 12 114 -5 0 -13 -7 -16 -16z"/> <path d="M1075 2212 c6 -5 28 -13 50 -17 27 -4 37 -3 30 3 -5 6 -28 14 -50 17 -27 5 -37 4 -30 -3z"/> <path d="M1685 2191 c-22 -10 -53 -21 -68 -25 -30 -7 -67 -58 -66 -91 0 -11 3 -14 6 -7 18 45 98 102 178 128 31 10 34 13 15 13 -14 0 -43 -8 -65 -18z"/> <path d="M925 2178 c-73 -37 -116 -102 -55 -83 11 4 20 2 20 -4 0 -6 12 -11 28 -11 23 1 24 2 10 11 -10 5 -18 19 -18 30 0 22 32 39 38 21 2 -7 13 -10 28 -6 18 5 24 2 24 -10 0 -9 -7 -16 -16 -16 -14 0 -14 -3 -4 -15 9 -11 22 -14 44 -10 39 9 56 30 56 71 0 27 -4 32 -31 38 -52 10 -82 6 -124 -16z"/> <path d="M1800 2191 c-63 -12 -195 -89 -180 -104 3 -3 30 -2 60 3 49 7 52 11 13 14 -7 1 -13 6 -12 11 0 6 6 9 13 7 7 -1 21 7 31 18 23 25 35 26 35 2 0 -27 32 -52 67 -52 32 0 63 26 63 53 0 20 4 21 31 7 27 -15 24 -45 -8 -59 -18 -8 -23 -15 -15 -23 7 -7 19 -3 39 16 21 20 36 26 62 24 21 -2 36 2 38 10 3 6 -3 12 -13 12 -9 0 -31 11 -49 24 -17 14 -49 27 -71 31 -21 4 -46 8 -54 10 -8 1 -31 -1 -50 -4z m43 -35 c19 -14 23 -36 7 -36 -5 0 -10 7 -10 15 0 8 -7 15 -15 15 -8 0 -15 5 -15 10 0 13 11 12 33 -4z"/> <path d="M1100 2172 c0 -12 30 -37 55 -46 17 -6 11 -11 -32 -28 -51 -19 -70 -38 -38 -38 8 0 15 4 15 9 0 5 27 12 60 16 33 4 60 10 60 15 0 7 -54 46 -97 69 -13 6 -23 8 -23 3z"/> <path d="M2372 2165 c-37 -16 -45 -40 -9 -30 24 8 24 8 50 6 23 -1 22 -18 -3 -26 -30 -10 -38 -34 -30 -95 l7 -55 2 47 c1 57 9 78 27 78 9 0 14 -11 14 -31 0 -41 -29 -140 -46 -160 -8 -8 -14 -26 -14 -39 0 -27 -17 -93 -36 -137 -8 -17 -14 -38 -14 -46 0 -9 -4 -19 -10 -22 -5 -3 -10 -14 -10 -24 0 -25 -36 -55 -56 -47 -9 3 -18 16 -21 27 -6 21 -6 21 -18 -2 -11 -20 -10 -25 11 -42 42 -33 108 7 120 72 4 20 13 48 20 63 8 15 21 56 29 92 8 36 29 99 46 141 61 152 31 267 -59 230z"/> <path d="M380 2135 c-17 -21 -5 -31 14 -12 15 15 61 12 72 -4 3 -5 11 -9 17 -9 7 1 1 10 -12 20 -28 24 -74 26 -91 5z"/> <path d="M1525 2101 c-3 -11 0 -41 6 -67 10 -37 14 -44 19 -28 4 10 3 22 -3 25 -5 4 -9 25 -9 48 1 45 -3 52 -13 22z"/> <path d="M373 2083 c-18 -7 -16 -72 2 -107 8 -15 15 -36 15 -45 0 -9 7 -25 16 -36 8 -11 24 -51 35 -90 22 -74 69 -179 76 -171 5 5 -21 87 -38 119 -6 10 -14 37 -19 60 -5 23 -23 84 -41 135 -27 77 -31 96 -21 112 7 11 12 22 12 25 0 6 -20 5 -37 -2z"/> <path d="M1740 2074 c0 -10 6 -14 15 -10 8 3 15 1 15 -5 0 -6 5 -7 10 -4 6 3 10 11 10 16 0 6 -4 8 -9 4 -5 -3 -12 -1 -16 5 -10 16 -25 12 -25 -6z"/> <path d="M2256 1768 c-8 -31 -8 -38 3 -38 12 0 22 43 12 53 -5 5 -11 -2 -15 -15z"/> <path d="M590 1744 c0 -12 7 -27 15 -34 20 -17 21 9 0 36 -14 19 -14 19 -15 -2z"/> <path d="M530 1608 c0 -9 12 -30 26 -47 32 -38 87 -44 104 -11 9 16 8 20 -5 20 -8 0 -15 -4 -15 -9 0 -13 -27 -21 -45 -14 -9 3 -27 22 -40 42 -15 22 -25 29 -25 19z"/> <path d="M1643 1593 c-6 -17 -21 -34 -32 -38 -12 -3 -21 -11 -21 -16 0 -13 60 19 66 36 3 8 4 22 2 32 -3 13 -7 10 -15 -14z"/> <path d="M1280 1602 c0 -4 22 -18 49 -31 27 -13 52 -29 55 -37 3 -8 10 -14 16 -14 17 0 -32 61 -62 76 -29 15 -58 18 -58 6z"/> <path d="M1543 1558 c-43 -38 -63 -61 -57 -67 2 -3 19 9 37 26 17 17 42 34 54 37 11 4 27 13 33 21 25 30 -28 16 -67 -17z"/> <path d="M1316 1505 c-3 -8 -13 -15 -23 -16 -24 -1 -113 -103 -113 -129 0 -25 20 -27 21 -2 1 11 3 9 8 -7 6 -22 8 -23 23 -8 8 9 18 13 22 10 3 -4 6 5 6 19 0 13 11 35 25 48 14 13 24 29 21 36 -3 7 4 20 15 30 20 18 25 34 10 34 -5 0 -11 -7 -15 -15z"/> <path d="M2136 1504 c-8 -22 -20 -130 -13 -124 10 10 34 130 27 135 -4 3 -11 -2 -14 -11z"/> <path d="M1567 1479 c3 -11 9 -19 14 -19 5 0 9 -5 9 -11 0 -5 -4 -7 -10 -4 -5 3 -10 2 -10 -3 0 -6 7 -12 15 -16 8 -3 15 0 15 6 0 6 8 4 18 -5 10 -10 29 -17 42 -17 l23 0 -21 23 c-12 13 -39 33 -61 44 -37 20 -38 20 -34 2z"/> <path d="M1325 1418 c-6 -16 -9 -47 -7 -76 2 -26 22 -21 22 5 0 9 6 24 13 32 12 14 11 19 -5 34 -14 13 -20 14 -23 5z"/> <path d="M1410 1422 c0 -5 -9 -20 -21 -33 l-20 -24 31 -8 c18 -4 34 -6 37 -4 7 8 -9 77 -18 77 -5 0 -9 -4 -9 -8z"/> <path d="M1477 1417 c-3 -9 -2 -19 4 -22 5 -4 7 -11 3 -16 -3 -5 -9 -7 -14 -4 -4 3 -10 -2 -14 -10 -4 -10 1 -15 14 -15 11 0 20 4 20 9 0 4 13 8 29 7 16 -1 27 -4 25 -8 -2 -4 0 -9 5 -12 5 -4 13 -2 16 4 9 15 -15 42 -31 36 -7 -3 -22 7 -32 21 -16 21 -20 23 -25 10z"/> <path d="M1153 1404 c-18 -8 -33 -18 -33 -23 0 -5 -9 -11 -20 -14 -11 -3 -20 -13 -20 -22 0 -10 5 -14 13 -9 6 4 2 -3 -10 -15 -13 -12 -23 -27 -23 -33 0 -9 3 -9 12 0 7 7 20 12 31 12 10 0 16 4 12 9 -3 6 5 20 19 33 22 21 63 79 55 77 -2 0 -19 -7 -36 -15z"/> <path d="M1706 1395 c5 -20 3 -24 -10 -19 -9 3 -16 9 -16 13 0 4 -9 7 -19 7 -12 0 -21 -9 -24 -23 -4 -22 3 -27 30 -24 7 1 22 -3 33 -9 16 -8 20 -8 20 4 0 9 8 14 20 13 12 -1 18 -7 16 -14 -3 -7 1 -10 10 -6 9 3 14 -1 14 -14 0 -10 9 -24 21 -31 25 -16 30 -13 22 16 -5 19 -8 20 -21 10 -13 -11 -14 -10 -4 8 10 18 6 25 -33 57 -52 44 -68 47 -59 12z"/> <path d="M2050 1323 c0 -17 19 -35 29 -29 16 10 14 -38 -4 -81 -18 -43 -116 -165 -150 -187 -14 -9 -25 -24 -25 -34 0 -13 6 -11 26 12 21 22 29 25 35 14 7 -10 9 -9 9 5 0 18 87 117 103 117 5 0 7 -18 4 -40 -6 -46 1 -82 14 -74 5 3 9 68 9 145 0 119 -2 139 -16 139 -8 0 -12 5 -9 10 3 6 -1 10 -9 10 -9 0 -16 -3 -16 -7z"/> <path d="M1680 1286 c-16 -9 -31 -11 -41 -5 -11 5 -38 3 -75 -7 -65 -17 -142 -19 -207 -5 -61 14 -197 22 -197 12 0 -15 42 -23 102 -21 45 1 63 -3 87 -21 17 -12 34 -19 38 -15 4 4 1 11 -7 16 -8 6 -10 10 -4 10 6 0 17 -6 23 -14 15 -18 101 -12 148 10 19 8 55 14 87 13 52 -2 86 11 86 32 0 12 -11 11 -40 -5z"/> <path d="M804 1234 c3 -9 6 -31 6 -49 0 -28 3 -32 20 -28 24 6 25 13 3 57 -18 35 -41 51 -29 20z"/> <path d="M1340 1122 c0 -6 5 -14 10 -17 6 -3 10 -12 10 -18 0 -7 -4 -6 -10 3 -7 12 -9 10 -7 -8 0 -12 2 -22 3 -22 1 0 15 7 30 15 26 13 29 13 35 -2 5 -15 7 -15 17 2 9 16 11 17 12 4 0 -21 18 -36 55 -45 29 -7 29 -6 14 12 -9 10 -19 28 -23 39 -5 14 3 9 24 -14 17 -18 33 -31 36 -28 3 3 -4 15 -16 27 -12 12 -19 25 -15 28 4 4 13 -2 21 -12 17 -24 28 -15 19 13 -6 19 -14 21 -73 21 -37 0 -84 3 -104 6 -24 4 -38 3 -38 -4z"/> <path d="M742 1000 c-23 -16 -49 -41 -58 -55 -9 -14 -25 -25 -35 -25 -32 0 -137 -47 -198 -89 -63 -43 -302 -165 -393 -201 -53 -20 -79 -50 -44 -50 20 0 122 41 193 78 35 18 66 33 70 33 19 2 179 92 186 104 7 13 62 45 78 45 5 0 31 14 60 30 28 17 52 30 53 28 9 -12 28 -75 41 -134 16 -70 108 -313 123 -324 4 -3 19 -21 32 -40 45 -65 65 -82 150 -138 47 -30 97 -63 111 -72 110 -76 263 -118 444 -121 87 -2 152 10 220 41 33 15 78 30 100 34 125 23 287 196 380 406 42 97 73 237 65 299 -5 39 -3 51 7 51 29 0 104 -44 154 -91 50 -46 119 -85 244 -140 96 -41 175 -82 175 -91 0 -4 9 -8 19 -8 11 0 26 -7 35 -15 20 -21 46 -19 46 3 0 11 -21 30 -52 49 -47 28 -320 162 -373 183 -11 4 -49 32 -85 60 -36 29 -85 61 -110 72 -25 11 -52 26 -61 34 -8 8 -49 23 -90 34 -41 10 -84 22 -96 26 -17 5 -23 2 -23 -9 0 -9 26 -27 63 -44 82 -40 127 -82 127 -122 0 -36 -32 -177 -55 -240 -40 -113 -101 -216 -174 -293 -87 -91 -144 -130 -226 -153 -33 -9 -87 -25 -120 -36 -80 -25 -223 -35 -300 -19 -61 12 -193 54 -230 73 -26 12 -158 99 -165 107 -3 4 -26 21 -52 38 -48 33 -121 119 -153 182 -41 79 -104 264 -110 323 -7 61 -6 63 33 112 40 51 61 95 44 95 -5 0 -28 -13 -50 -30z"/> <path d="M1156 885 c-3 -8 2 -18 10 -23 8 -5 35 -28 60 -51 24 -24 44 -38 44 -32 0 21 18 11 24 -14 4 -14 10 -23 15 -20 5 2 12 -2 15 -11 5 -12 14 -15 35 -11 16 3 31 3 35 0 9 -9 59 -11 76 -2 8 4 23 10 33 13 23 7 21 21 -6 39 -22 14 -23 14 -23 -6 1 -17 -7 -23 -36 -27 -34 -6 -36 -5 -27 12 7 14 6 20 -6 24 -9 4 -22 18 -31 33 l-15 26 7 -25 c4 -14 14 -30 22 -36 14 -10 12 -13 -8 -24 -18 -10 -25 -10 -28 -1 -2 6 -10 18 -18 25 -11 11 -11 15 -1 19 18 7 -15 29 -74 50 -27 10 -49 22 -49 28 0 6 -5 7 -10 4 -6 -3 -13 1 -16 9 -8 20 -20 20 -28 1z"/> <path d="M1425 891 c-11 -11 -4 -22 13 -19 9 1 23 -1 30 -5 7 -5 12 -4 12 2 0 6 1 14 3 19 2 8 -51 11 -58 3z"/> <path d="M1672 851 c-11 -7 -12 -12 -1 -29 11 -18 10 -24 -6 -44 l-20 -22 25 17 c14 10 33 20 43 24 24 8 22 22 -3 16 -19 -5 -25 4 -21 35 2 14 0 15 -17 3z"/> <path d="M1555 748 c4 -44 3 -44 16 -31 8 8 8 17 0 31 -8 15 -8 22 2 25 7 4 6 6 -4 6 -13 1 -16 -7 -14 -31z"/> <path d="M1617 732 c-10 -2 -16 -9 -14 -15 5 -15 49 -16 54 -1 5 14 -15 22 -40 16z"/> <path d="M1502 520 c-9 -16 -20 -30 -24 -30 -5 0 -8 -4 -8 -9 0 -5 14 -3 30 5 17 9 30 19 30 24 0 5 3 15 6 24 11 28 -16 17 -34 -14z"/> </g> </svg> 